<svg xmlns="http://www.w3.org/2000/svg" xmlns:xlink="http://www.w3.org/1999/xlink" zoomAndPan="magnify" preserveAspectRatio="xMidYMid meet" version="1.0" viewBox="11.22 28.57 352.55 126.85"><defs><g/><clipPath id="02c9cc9202"><path d="M 19.222656 36.574219 L 355.949219 36.574219 L 355.949219 136.324219 L 19.222656 136.324219 Z M 19.222656 36.574219 " clip-rule="nonzero"/></clipPath><clipPath id="b960bb7ae7"><path d="M 355.777344 52.324219 L 355.777344 120.8125 C 355.777344 124.988281 354.117188 128.996094 351.164062 131.949219 C 348.210938 134.902344 344.207031 136.558594 340.027344 136.558594 L 34.96875 136.558594 C 30.792969 136.558594 26.785156 134.902344 23.832031 131.949219 C 20.878906 128.996094 19.222656 124.988281 19.222656 120.8125 L 19.222656 52.324219 C 19.222656 48.148438 20.878906 44.140625 23.832031 41.1875 C 26.785156 38.234375 30.792969 36.574219 34.96875 36.574219 L 340.027344 36.574219 C 344.207031 36.574219 348.210938 38.234375 351.164062 41.1875 C 354.117188 44.140625 355.777344 48.148438 355.777344 52.324219 Z M 355.777344 52.324219 " clip-rule="nonzero"/></clipPath><clipPath id="61a4a533be"><path d="M 0.160156 11 L 57.761719 11 L 57.761719 72 L 0.160156 72 Z M 0.160156 11 " clip-rule="nonzero"/></clipPath><clipPath id="bf702d5b5d"><rect x="0" width="58" y="0" height="86"/></clipPath><clipPath id="0854e4de2c"><path d="M 1 11 L 55.800781 11 L 55.800781 72 L 1 72 Z M 1 11 " clip-rule="nonzero"/></clipPath><clipPath id="06803e56b8"><rect x="0" width="56" y="0" height="86"/></clipPath><clipPath id="ab45b4fbc4"><rect x="0" width="35" y="0" height="86"/></clipPath><clipPath id="04bce160e0"><path d="M 214.839844 59.582031 L 235.996094 59.582031 L 235.996094 113.234375 L 214.839844 113.234375 Z M 214.839844 59.582031 " clip-rule="nonzero"/></clipPath><clipPath id="2f5acc78fd"><path d="M 0.839844 0.582031 L 21.996094 0.582031 L 21.996094 54.234375 L 0.839844 54.234375 Z M 0.839844 0.582031 " clip-rule="nonzero"/></clipPath><clipPath id="a317b38c6d"><rect x="0" width="22" y="0" height="55"/></clipPath><clipPath id="19b523125a"><path d="M 217 42 L 245 42 L 245 100 L 217 100 Z M 217 42 " clip-rule="nonzero"/></clipPath><clipPath id="df083e3f79"><path d="M 204.34375 50.667969 L 242.304688 36.546875 L 260.605469 85.753906 L 222.648438 99.871094 Z M 204.34375 50.667969 " clip-rule="nonzero"/></clipPath><clipPath id="c1afe267f0"><path d="M 204.34375 50.667969 L 242.304688 36.546875 L 260.605469 85.753906 L 222.648438 99.871094 Z M 204.34375 50.667969 " clip-rule="nonzero"/></clipPath><clipPath id="3634db90a1"><path d="M 107.085938 128.9375 L 267.914062 128.9375 L 267.914062 155.425781 L 107.085938 155.425781 Z M 107.085938 128.9375 " clip-rule="nonzero"/></clipPath><clipPath id="73770dbfe4"><path d="M 0.0859375 0.9375 L 160.914062 0.9375 L 160.914062 27.425781 L 0.0859375 27.425781 Z M 0.0859375 0.9375 " clip-rule="nonzero"/></clipPath><clipPath id="e956c71bfc"><rect x="0" width="161" y="0" height="28"/></clipPath><clipPath id="face66a29f"><path d="M 1 11 L 55.640625 11 L 55.640625 72 L 1 72 Z M 1 11 " clip-rule="nonzero"/></clipPath><clipPath id="8a0f4da10b"><rect x="0" width="56" y="0" height="86"/></clipPath><clipPath id="71b0b79915"><rect x="0" width="57" y="0" height="86"/></clipPath><clipPath id="3b66120a3d"><path d="M 0.320312 11 L 57.679688 11 L 57.679688 72 L 0.320312 72 Z M 0.320312 11 " clip-rule="nonzero"/></clipPath><clipPath id="fae9ffa817"><rect x="0" width="58" y="0" height="86"/></clipPath><clipPath id="f87687b276"><rect x="0" width="104" y="0" height="17"/></clipPath></defs><g clip-path="url(#02c9cc9202)"><g clip-path="url(#b960bb7ae7)"><path stroke-linecap="butt" transform="matrix(0.75, 0, 0, 0.75, 19.220944, 36.575721)" fill="none" stroke-linejoin="miter" d="M 448.741923 20.997999 L 448.741923 112.315719 C 448.741923 117.883428 446.528381 123.227179 442.59088 127.164679 C 438.65338 131.10218 433.314837 133.310513 427.74192 133.310513 L 20.997077 133.310513 C 15.429368 133.310513 10.085617 131.10218 6.148117 127.164679 C 2.210616 123.227179 0.00228249 117.883428 0.00228249 112.315719 L 0.00228249 20.997999 C 0.00228249 15.43029 2.210616 10.086539 6.148117 6.149039 C 10.085617 2.211538 15.429368 -0.00200363 20.997077 -0.00200363 L 427.74192 -0.00200363 C 433.314837 -0.00200363 438.65338 2.211538 442.59088 6.149039 C 446.528381 10.086539 448.741923 15.43029 448.741923 20.997999 Z M 448.741923 20.997999 " stroke="#222222" stroke-width="16" stroke-opacity="1" stroke-miterlimit="4"/></g></g><g transform="matrix(1, 0, 0, 1, 242, 45)"><g clip-path="url(#bf702d5b5d)"><g clip-path="url(#61a4a533be)"><g fill="#ffffff" fill-opacity="1"><g transform="translate(2.253866, 68.120533)"><g><path d="M 51.390625 3.191406 L 23.652344 3.191406 C 22.515625 3.191406 21.601562 2.757812 20.90625 1.886719 C 20.382812 1.234375 20.121094 0.460938 20.121094 -0.425781 L 20.121094 -0.507812 L 20.125 -0.59375 C 20.183594 -1.710938 20.300781 -3.214844 20.476562 -5.101562 C 20.648438 -6.957031 20.832031 -8.832031 21.03125 -10.714844 L 21.5625 -15.632812 L 21.820312 -16.144531 C 22.269531 -17.046875 23 -17.664062 24.003906 -18 C 24.503906 -18.167969 24.980469 -18.25 25.4375 -18.25 L 26.191406 -18.25 L 26.867188 -17.914062 C 26.554688 -18.066406 26.28125 -18.15625 26.042969 -18.175781 C 26.125 -18.167969 26.265625 -18.164062 26.460938 -18.164062 L 29.351562 -18.164062 L 29.351562 -14.972656 L 27.996094 -17.863281 L 28.71875 -18.203125 C 28.378906 -18.042969 28.101562 -17.789062 27.890625 -17.4375 C 27.703125 -17.128906 27.609375 -16.816406 27.609375 -16.503906 L 30.800781 -16.503906 L 27.671875 -15.878906 C 27.601562 -16.222656 27.464844 -17.117188 27.257812 -18.566406 L 26.578125 -23.328125 C 26.320312 -25.136719 26.089844 -26.878906 25.886719 -28.546875 C 25.683594 -30.242188 25.550781 -31.511719 25.488281 -32.359375 L 25.488281 -32.398438 L 25.484375 -32.441406 C 25.441406 -33.394531 25.324219 -34.15625 25.136719 -34.726562 L 25.132812 -34.742188 C 25.191406 -34.640625 25.269531 -34.539062 25.375 -34.433594 C 25.785156 -34.023438 26.289062 -33.820312 26.886719 -33.820312 L 26.773438 -33.820312 L 26.660156 -33.828125 C 27.007812 -33.804688 27.351562 -33.90625 27.691406 -34.140625 C 27.957031 -34.328125 28.132812 -34.523438 28.210938 -34.730469 C 27.988281 -34.144531 27.863281 -33.753906 27.839844 -33.550781 C 27.660156 -32.242188 27.371094 -30.429688 26.964844 -28.121094 C 26.566406 -25.839844 26.109375 -23.332031 25.597656 -20.597656 C 25.089844 -17.894531 24.613281 -15.195312 24.164062 -12.492188 C 23.714844 -9.796875 23.335938 -7.34375 23.027344 -5.132812 C 22.726562 -2.988281 22.554688 -1.367188 22.5 -0.273438 L 19.3125 -0.425781 L 22.503906 -0.425781 C 22.503906 0.304688 22.332031 0.960938 21.984375 1.535156 C 21.671875 2.058594 21.25 2.46875 20.71875 2.761719 C 20.207031 3.046875 19.652344 3.191406 19.058594 3.191406 L 1.871094 3.191406 C 1.273438 3.191406 0.714844 3.050781 0.199219 2.769531 C -0.425781 2.429688 -0.894531 1.9375 -1.214844 1.300781 C -1.566406 0.59375 -1.671875 -0.183594 -1.53125 -1.035156 L -1.511719 -1.160156 L -1.480469 -1.285156 C -1.457031 -1.371094 -1.441406 -1.472656 -1.425781 -1.585938 C -1.382812 -1.984375 -1.316406 -2.363281 -1.222656 -2.730469 L 1.871094 -1.957031 L -1.242188 -2.648438 C -1.132812 -3.140625 -0.910156 -4.214844 -0.574219 -5.867188 L 0.574219 -11.523438 L 1.808594 -17.609375 C 2.21875 -19.625 2.570312 -21.199219 2.871094 -22.335938 L 5.957031 -21.527344 L 2.800781 -22.011719 C 2.917969 -22.773438 3.136719 -24.042969 3.453125 -25.828125 C 3.761719 -27.566406 4.097656 -29.578125 4.464844 -31.859375 L 5.613281 -38.925781 C 6.007812 -41.320312 6.359375 -43.585938 6.667969 -45.71875 C 6.984375 -47.890625 7.253906 -49.695312 7.484375 -51.128906 C 7.683594 -52.378906 7.785156 -53.0625 7.785156 -53.175781 L 7.785156 -53.570312 L 7.878906 -53.949219 C 8.050781 -54.636719 8.375 -55.214844 8.847656 -55.6875 C 9.527344 -56.367188 10.351562 -56.707031 11.316406 -56.707031 L 42.285156 -56.707031 C 42.878906 -56.707031 43.433594 -56.558594 43.949219 -56.265625 C 44.355469 -56.03125 44.703125 -55.726562 44.988281 -55.34375 C 45.289062 -54.945312 45.503906 -54.480469 45.636719 -53.949219 L 45.65625 -53.875 L 45.667969 -53.800781 C 45.789062 -53.207031 46.003906 -52.007812 46.320312 -50.195312 L 47.34375 -44.183594 L 48.410156 -37.835938 C 48.746094 -35.855469 49.023438 -34.316406 49.242188 -33.210938 L 49.25 -33.175781 L 49.257812 -33.136719 C 49.660156 -30.84375 50.03125 -28.546875 50.375 -26.253906 L 51.398438 -19.445312 L 48.242188 -18.972656 L 51.335938 -19.746094 C 51.472656 -19.199219 51.648438 -18.238281 51.863281 -16.867188 C 52.054688 -15.628906 52.304688 -14.222656 52.609375 -12.644531 C 52.921875 -11.007812 53.226562 -9.355469 53.511719 -7.6875 C 53.789062 -6.085938 54.050781 -4.710938 54.296875 -3.5625 C 54.566406 -2.296875 54.734375 -1.429688 54.804688 -0.960938 L 51.644531 -0.511719 L 54.671875 -1.519531 C 55.007812 -0.511719 54.957031 0.425781 54.519531 1.300781 C 54.164062 2.007812 53.625 2.53125 52.902344 2.863281 C 52.429688 3.082031 51.925781 3.191406 51.390625 3.191406 Z M 51.390625 -3.191406 C 50.992188 -3.191406 50.605469 -3.101562 50.226562 -2.929688 C 49.597656 -2.636719 49.125 -2.179688 48.8125 -1.554688 C 48.460938 -0.851562 48.394531 -0.167969 48.617188 0.5 L 48.527344 0.226562 L 48.484375 -0.0585938 C 48.441406 -0.382812 48.296875 -1.105469 48.054688 -2.222656 C 47.792969 -3.457031 47.515625 -4.917969 47.222656 -6.605469 C 46.945312 -8.230469 46.648438 -9.839844 46.34375 -11.433594 C 46.023438 -13.089844 45.761719 -14.574219 45.554688 -15.886719 C 45.371094 -17.070312 45.234375 -17.839844 45.144531 -18.199219 L 45.109375 -18.347656 L 44.066406 -25.304688 C 43.726562 -27.550781 43.363281 -29.792969 42.972656 -32.035156 L 46.113281 -32.585938 L 42.984375 -31.960938 C 42.753906 -33.125 42.460938 -34.734375 42.117188 -36.78125 L 41.054688 -43.113281 L 40.035156 -49.097656 C 39.726562 -50.855469 39.519531 -52.007812 39.410156 -52.550781 L 42.539062 -53.175781 L 39.445312 -52.402344 C 39.519531 -52.097656 39.667969 -51.804688 39.882812 -51.515625 C 40.125 -51.191406 40.425781 -50.929688 40.78125 -50.726562 C 41.246094 -50.457031 41.75 -50.324219 42.285156 -50.324219 L 11.316406 -50.324219 C 12.113281 -50.324219 12.792969 -50.609375 13.359375 -51.175781 C 13.71875 -51.535156 13.957031 -51.945312 14.070312 -52.402344 L 10.976562 -53.175781 L 14.167969 -53.175781 C 14.167969 -52.722656 14.039062 -51.703125 13.785156 -50.121094 C 13.5625 -48.71875 13.292969 -46.945312 12.984375 -44.804688 C 12.667969 -42.628906 12.3125 -40.328125 11.914062 -37.902344 L 10.765625 -30.847656 C 10.394531 -28.53125 10.050781 -26.488281 9.734375 -24.710938 C 9.429688 -22.976562 9.21875 -21.753906 9.109375 -21.039062 L 9.082031 -20.875 L 9.042969 -20.714844 C 8.773438 -19.695312 8.445312 -18.238281 8.0625 -16.339844 L 6.828125 -10.253906 L 5.679688 -4.597656 C 5.335938 -2.90625 5.105469 -1.792969 4.988281 -1.265625 L 4.976562 -1.222656 L 4.96875 -1.183594 C 4.945312 -1.09375 4.929688 -0.996094 4.914062 -0.882812 C 4.871094 -0.484375 4.804688 -0.101562 4.710938 0.261719 L 1.617188 -0.511719 L 4.765625 0.015625 C 4.847656 -0.5 4.757812 -1.019531 4.492188 -1.554688 C 4.214844 -2.109375 3.804688 -2.535156 3.257812 -2.832031 C 2.820312 -3.070312 2.359375 -3.191406 1.871094 -3.191406 L 19.058594 -3.191406 C 18.550781 -3.191406 18.070312 -3.066406 17.621094 -2.816406 C 17.15625 -2.558594 16.785156 -2.199219 16.511719 -1.746094 C 16.253906 -1.3125 16.121094 -0.871094 16.121094 -0.425781 L 16.121094 -0.5 L 16.125 -0.578125 C 16.1875 -1.863281 16.382812 -3.675781 16.707031 -6.011719 C 17.023438 -8.28125 17.410156 -10.792969 17.867188 -13.542969 C 18.324219 -16.285156 18.8125 -19.03125 19.324219 -21.773438 C 19.832031 -24.484375 20.285156 -26.964844 20.679688 -29.222656 C 21.070312 -31.453125 21.347656 -33.160156 21.507812 -34.34375 C 21.597656 -35.050781 21.839844 -35.933594 22.242188 -36.992188 C 22.632812 -38.023438 23.238281 -38.820312 24.058594 -39.390625 C 24.953125 -40.007812 25.96875 -40.273438 27.113281 -40.191406 L 26.886719 -37.011719 L 26.886719 -40.203125 C 28.050781 -40.203125 29.050781 -39.785156 29.886719 -38.949219 C 30.453125 -38.378906 30.886719 -37.644531 31.1875 -36.742188 C 31.566406 -35.613281 31.789062 -34.273438 31.859375 -32.730469 L 28.671875 -32.585938 L 31.855469 -32.8125 C 31.90625 -32.070312 32.03125 -30.902344 32.222656 -29.308594 C 32.417969 -27.6875 32.644531 -25.996094 32.894531 -24.230469 L 33.574219 -19.46875 C 33.765625 -18.136719 33.882812 -17.355469 33.929688 -17.132812 L 33.988281 -16.820312 L 33.988281 -16.503906 C 33.988281 -15.628906 33.777344 -14.832031 33.347656 -14.125 C 32.894531 -13.378906 32.257812 -12.8125 31.433594 -12.425781 L 30.066406 -11.785156 L 26.460938 -11.785156 C 25.390625 -11.785156 24.574219 -11.925781 24.011719 -12.207031 L 25.4375 -15.058594 L 25.4375 -11.867188 C 25.671875 -11.867188 25.867188 -11.894531 26.023438 -11.949219 C 26.6875 -12.167969 27.191406 -12.617188 27.527344 -13.292969 L 24.671875 -14.71875 L 27.847656 -14.378906 L 27.378906 -10.042969 C 27.179688 -8.1875 27 -6.34375 26.828125 -4.515625 C 26.664062 -2.710938 26.554688 -1.292969 26.5 -0.257812 L 23.3125 -0.425781 L 26.503906 -0.425781 C 26.503906 -1.03125 26.296875 -1.585938 25.890625 -2.097656 C 25.308594 -2.828125 24.5625 -3.191406 23.652344 -3.191406 Z M 51.390625 -3.191406 "/></g></g></g></g><g fill="#222222" fill-opacity="1"><g transform="translate(2.253866, 68.120533)"><g><path d="M 51.390625 0 L 23.65625 0 C 23.425781 0 23.3125 -0.140625 23.3125 -0.421875 C 23.363281 -1.503906 23.472656 -2.96875 23.640625 -4.8125 C 23.816406 -6.65625 24.003906 -8.507812 24.203125 -10.375 C 24.398438 -12.25 24.554688 -13.695312 24.671875 -14.71875 C 24.722656 -14.832031 24.832031 -14.914062 25 -14.96875 C 25.175781 -15.03125 25.320312 -15.0625 25.4375 -15.0625 C 25.550781 -15 25.890625 -14.96875 26.453125 -14.96875 C 27.023438 -14.96875 27.609375 -14.96875 28.203125 -14.96875 C 28.796875 -14.96875 29.179688 -14.96875 29.359375 -14.96875 C 29.359375 -14.96875 29.597656 -15.082031 30.078125 -15.3125 C 30.554688 -15.539062 30.796875 -15.9375 30.796875 -16.5 C 30.742188 -16.789062 30.617188 -17.628906 30.421875 -19.015625 C 30.222656 -20.398438 29.992188 -21.984375 29.734375 -23.765625 C 29.484375 -25.554688 29.253906 -27.273438 29.046875 -28.921875 C 28.847656 -30.566406 28.722656 -31.785156 28.671875 -32.578125 C 28.617188 -33.828125 28.445312 -34.878906 28.15625 -35.734375 C 27.875 -36.585938 27.453125 -37.015625 26.890625 -37.015625 C 26.085938 -37.066406 25.53125 -36.679688 25.21875 -35.859375 C 24.90625 -35.035156 24.722656 -34.398438 24.671875 -33.953125 C 24.503906 -32.703125 24.21875 -30.941406 23.8125 -28.671875 C 23.414062 -26.398438 22.960938 -23.898438 22.453125 -21.171875 C 21.941406 -18.453125 21.457031 -15.734375 21 -13.015625 C 20.550781 -10.296875 20.171875 -7.816406 19.859375 -5.578125 C 19.546875 -3.335938 19.363281 -1.617188 19.3125 -0.421875 C 19.3125 -0.140625 19.226562 0 19.0625 0 L 1.875 0 C 1.644531 0 1.554688 -0.171875 1.609375 -0.515625 C 1.671875 -0.734375 1.710938 -0.96875 1.734375 -1.21875 C 1.765625 -1.476562 1.8125 -1.722656 1.875 -1.953125 C 1.988281 -2.460938 2.210938 -3.550781 2.546875 -5.21875 C 2.890625 -6.894531 3.273438 -8.78125 3.703125 -10.875 C 4.128906 -12.976562 4.539062 -15.007812 4.9375 -16.96875 C 5.332031 -18.925781 5.671875 -20.445312 5.953125 -21.53125 C 6.066406 -22.257812 6.28125 -23.503906 6.59375 -25.265625 C 6.90625 -27.023438 7.242188 -29.050781 7.609375 -31.34375 C 7.984375 -33.644531 8.367188 -36 8.765625 -38.40625 C 9.160156 -40.820312 9.515625 -43.109375 9.828125 -45.265625 C 10.140625 -47.421875 10.40625 -49.207031 10.625 -50.625 C 10.851562 -52.039062 10.96875 -52.890625 10.96875 -53.171875 C 11.03125 -53.398438 11.144531 -53.515625 11.3125 -53.515625 L 42.28125 -53.515625 C 42.394531 -53.515625 42.484375 -53.398438 42.546875 -53.171875 C 42.648438 -52.609375 42.859375 -51.429688 43.171875 -49.640625 C 43.484375 -47.859375 43.820312 -45.859375 44.1875 -43.640625 C 44.5625 -41.429688 44.914062 -39.316406 45.25 -37.296875 C 45.59375 -35.285156 45.878906 -33.710938 46.109375 -32.578125 C 46.503906 -30.316406 46.875 -28.050781 47.21875 -25.78125 C 47.5625 -23.507812 47.898438 -21.238281 48.234375 -18.96875 C 48.347656 -18.519531 48.503906 -17.65625 48.703125 -16.375 C 48.898438 -15.101562 49.15625 -13.65625 49.46875 -12.03125 C 49.78125 -10.414062 50.078125 -8.785156 50.359375 -7.140625 C 50.648438 -5.492188 50.921875 -4.078125 51.171875 -2.890625 C 51.429688 -1.703125 51.585938 -0.910156 51.640625 -0.515625 C 51.753906 -0.171875 51.671875 0 51.390625 0 Z M 51.390625 0 "/></g></g></g></g></g><g transform="matrix(1, 0, 0, 1, 201, 45)"><g clip-path="url(#06803e56b8)"><g clip-path="url(#0854e4de2c)"><g fill="#ffffff" fill-opacity="1"><g transform="translate(2.347433, 68.120533)"><g><path d="M 41.65625 1.730469 C 39.8125 2.386719 37.945312 2.800781 36.054688 2.964844 C 34.347656 3.117188 33.105469 3.191406 32.332031 3.191406 L 18.039062 3.191406 C 15.335938 3.191406 12.582031 2.597656 9.773438 1.40625 C 6.8125 0.152344 4.507812 -1.625 2.855469 -3.921875 C 1.71875 -5.554688 0.878906 -7.367188 0.328125 -9.359375 C -0.175781 -11.191406 -0.507812 -12.980469 -0.667969 -14.726562 C -0.816406 -16.382812 -0.894531 -17.769531 -0.894531 -18.886719 L -0.894531 -52.921875 C -0.894531 -53.800781 -0.660156 -54.566406 -0.191406 -55.222656 C 0.167969 -55.726562 0.628906 -56.109375 1.1875 -56.371094 C 1.667969 -56.59375 2.179688 -56.707031 2.722656 -56.707031 L 22.460938 -56.707031 C 23.003906 -56.707031 23.515625 -56.59375 23.996094 -56.371094 C 24.554688 -56.109375 25.015625 -55.726562 25.378906 -55.222656 C 25.84375 -54.566406 26.078125 -53.800781 26.078125 -52.921875 L 26.078125 -40.03125 C 26.078125 -38.453125 26.0625 -36.777344 26.035156 -35.003906 C 26.007812 -33.28125 26.007812 -31.71875 26.035156 -30.308594 C 26.0625 -28.949219 26.097656 -28.027344 26.148438 -27.542969 L 26.15625 -27.460938 L 26.160156 -27.378906 C 26.210938 -26.289062 26.3125 -25.21875 26.46875 -24.15625 C 26.515625 -23.84375 26.570312 -23.609375 26.636719 -23.457031 L 26.628906 -23.460938 C 26.585938 -23.527344 26.527344 -23.589844 26.453125 -23.65625 C 26.390625 -23.710938 26.273438 -23.765625 26.101562 -23.816406 C 25.773438 -23.914062 25.445312 -23.914062 25.117188 -23.816406 C 25.226562 -23.847656 25.296875 -23.875 25.332031 -23.890625 C 25.222656 -23.835938 25.101562 -23.742188 24.96875 -23.613281 L 27.226562 -21.355469 L 24.652344 -23.242188 C 24.863281 -23.53125 24.972656 -23.921875 24.972656 -24.417969 C 24.972656 -25.664062 25 -26.878906 25.058594 -28.066406 L 28.246094 -27.90625 L 25.054688 -27.90625 C 25.054688 -28.492188 25.070312 -29.574219 25.097656 -31.15625 C 25.128906 -32.695312 25.140625 -34.40625 25.140625 -36.289062 L 25.140625 -41.691406 C 25.140625 -43.457031 25.171875 -44.828125 25.234375 -45.800781 L 28.417969 -45.605469 L 25.226562 -45.605469 L 25.226562 -49.304688 C 25.226562 -50.472656 25.199219 -51.628906 25.144531 -52.769531 L 25.140625 -52.84375 L 25.140625 -52.921875 C 25.140625 -53.800781 25.375 -54.566406 25.84375 -55.222656 C 26.203125 -55.726562 26.664062 -56.109375 27.222656 -56.371094 C 27.703125 -56.59375 28.214844 -56.707031 28.757812 -56.707031 L 49.601562 -56.707031 C 50.144531 -56.707031 50.65625 -56.59375 51.136719 -56.371094 C 51.699219 -56.109375 52.15625 -55.726562 52.519531 -55.222656 C 52.984375 -54.566406 53.21875 -53.800781 53.21875 -52.921875 L 53.21875 -20.589844 C 53.21875 -18.160156 53.085938 -15.601562 52.820312 -12.917969 C 52.503906 -9.722656 51.449219 -6.972656 49.648438 -4.671875 C 48.542969 -3.308594 47.382812 -2.09375 46.164062 -1.035156 C 44.820312 0.128906 43.363281 1.035156 41.792969 1.675781 L 41.726562 1.703125 Z M 39.511719 -4.28125 L 40.582031 -1.277344 L 39.375 -4.230469 C 40.300781 -4.605469 41.167969 -5.148438 41.980469 -5.855469 C 42.917969 -6.667969 43.796875 -7.582031 44.621094 -8.601562 C 45.660156 -9.929688 46.273438 -11.578125 46.46875 -13.542969 C 46.714844 -16.019531 46.835938 -18.367188 46.835938 -20.589844 L 46.835938 -52.921875 C 46.835938 -52.4375 47 -51.96875 47.324219 -51.511719 C 47.613281 -51.109375 47.984375 -50.800781 48.4375 -50.585938 C 48.8125 -50.414062 49.203125 -50.324219 49.601562 -50.324219 L 28.757812 -50.324219 C 29.160156 -50.324219 29.546875 -50.414062 29.921875 -50.585938 C 30.375 -50.800781 30.746094 -51.109375 31.035156 -51.511719 C 31.359375 -51.96875 31.523438 -52.4375 31.523438 -52.921875 L 28.332031 -52.921875 L 31.519531 -53.074219 C 31.578125 -51.832031 31.609375 -50.574219 31.609375 -49.304688 L 31.609375 -45.503906 L 31.601562 -45.40625 C 31.550781 -44.5625 31.523438 -43.324219 31.523438 -41.691406 L 31.523438 -36.289062 C 31.523438 -34.367188 31.507812 -32.617188 31.480469 -31.039062 C 31.453125 -29.5 31.4375 -28.453125 31.4375 -27.90625 L 31.4375 -27.828125 L 31.433594 -27.746094 C 31.378906 -26.667969 31.351562 -25.554688 31.351562 -24.417969 C 31.351562 -22.53125 30.835938 -20.882812 29.800781 -19.46875 L 29.65625 -19.273438 L 29.480469 -19.097656 C 28.875 -18.492188 28.03125 -18.027344 26.953125 -17.703125 C 26.058594 -17.433594 25.164062 -17.433594 24.265625 -17.703125 C 23.527344 -17.925781 22.84375 -18.320312 22.214844 -18.886719 C 21.125 -19.855469 20.4375 -21.304688 20.15625 -23.234375 C 19.96875 -24.5 19.847656 -25.777344 19.785156 -27.074219 L 22.972656 -27.226562 L 19.796875 -26.910156 C 19.730469 -27.5625 19.683594 -28.652344 19.652344 -30.183594 C 19.625 -31.667969 19.625 -33.308594 19.652344 -35.105469 C 19.683594 -36.847656 19.695312 -38.488281 19.695312 -40.03125 L 19.695312 -52.921875 C 19.695312 -52.4375 19.859375 -51.96875 20.183594 -51.511719 C 20.472656 -51.109375 20.84375 -50.800781 21.296875 -50.585938 C 21.671875 -50.414062 22.058594 -50.324219 22.460938 -50.324219 L 2.722656 -50.324219 C 3.125 -50.324219 3.511719 -50.414062 3.886719 -50.585938 C 4.339844 -50.800781 4.710938 -51.109375 5 -51.511719 C 5.324219 -51.96875 5.488281 -52.4375 5.488281 -52.921875 L 5.488281 -18.886719 C 5.488281 -17.964844 5.554688 -16.769531 5.6875 -15.304688 C 5.8125 -13.933594 6.074219 -12.519531 6.480469 -11.058594 C 6.835938 -9.765625 7.355469 -8.628906 8.035156 -7.648438 C 8.992188 -6.316406 10.402344 -5.257812 12.261719 -4.46875 C 14.273438 -3.617188 16.199219 -3.191406 18.039062 -3.191406 L 32.332031 -3.191406 C 32.917969 -3.191406 33.972656 -3.257812 35.496094 -3.390625 C 36.84375 -3.507812 38.179688 -3.804688 39.511719 -4.28125 Z M 39.511719 -4.28125 "/></g></g></g></g><g fill="#222222" fill-opacity="1"><g transform="translate(2.347433, 68.120533)"><g><path d="M 40.578125 -1.28125 C 38.992188 -0.707031 37.390625 -0.347656 35.765625 -0.203125 C 34.148438 -0.0664062 33.003906 0 32.328125 0 L 18.03125 0 C 15.769531 0 13.429688 -0.507812 11.015625 -1.53125 C 8.609375 -2.550781 6.75 -3.96875 5.4375 -5.78125 C 4.53125 -7.082031 3.847656 -8.554688 3.390625 -10.203125 C 2.941406 -11.847656 2.644531 -13.453125 2.5 -15.015625 C 2.363281 -16.578125 2.296875 -17.867188 2.296875 -18.890625 L 2.296875 -52.921875 C 2.296875 -53.316406 2.4375 -53.515625 2.71875 -53.515625 L 22.453125 -53.515625 C 22.742188 -53.515625 22.890625 -53.316406 22.890625 -52.921875 C 22.890625 -49.796875 22.890625 -46.675781 22.890625 -43.5625 C 22.890625 -42.769531 22.890625 -41.59375 22.890625 -40.03125 C 22.890625 -38.46875 22.875 -36.804688 22.84375 -35.046875 C 22.8125 -33.296875 22.8125 -31.695312 22.84375 -30.25 C 22.875 -28.800781 22.914062 -27.789062 22.96875 -27.21875 C 23.03125 -26.03125 23.144531 -24.851562 23.3125 -23.6875 C 23.476562 -22.53125 23.816406 -21.722656 24.328125 -21.265625 C 24.898438 -20.753906 25.46875 -20.582031 26.03125 -20.75 C 26.601562 -20.925781 27 -21.128906 27.21875 -21.359375 C 27.84375 -22.203125 28.15625 -23.21875 28.15625 -24.40625 C 28.15625 -25.601562 28.1875 -26.769531 28.25 -27.90625 C 28.25 -28.46875 28.257812 -29.53125 28.28125 -31.09375 C 28.3125 -32.65625 28.328125 -34.382812 28.328125 -36.28125 C 28.328125 -38.1875 28.328125 -39.988281 28.328125 -41.6875 C 28.328125 -43.382812 28.359375 -44.691406 28.421875 -45.609375 C 28.421875 -46.847656 28.421875 -48.078125 28.421875 -49.296875 C 28.421875 -50.515625 28.390625 -51.722656 28.328125 -52.921875 C 28.328125 -53.316406 28.46875 -53.515625 28.75 -53.515625 L 49.59375 -53.515625 C 49.882812 -53.515625 50.03125 -53.316406 50.03125 -52.921875 L 50.03125 -20.59375 C 50.03125 -18.257812 49.898438 -15.800781 49.640625 -13.21875 C 49.390625 -10.644531 48.554688 -8.453125 47.140625 -6.640625 C 46.171875 -5.441406 45.144531 -4.375 44.0625 -3.4375 C 42.988281 -2.507812 41.828125 -1.789062 40.578125 -1.28125 Z M 40.578125 -1.28125 "/></g></g></g></g></g><g transform="matrix(1, 0, 0, 1, 201, 45)"><g clip-path="url(#ab45b4fbc4)"><g fill="#ffffff" fill-opacity="1"><g transform="translate(2.347433, 68.120533)"><g><path d="M 2.550781 -56.707031 L 26.121094 -56.707031 C 27.367188 -56.707031 28.386719 -56.277344 29.175781 -55.417969 C 29.890625 -54.636719 30.246094 -53.664062 30.246094 -52.496094 L 30.246094 -52.332031 L 30.230469 -52.167969 C 30.070312 -50.621094 29.976562 -48.449219 29.949219 -45.65625 C 29.921875 -42.773438 29.90625 -39.652344 29.90625 -36.289062 C 29.90625 -32.929688 29.933594 -29.660156 29.992188 -26.472656 L 30.117188 -18 C 30.148438 -15.605469 30.1875 -13.949219 30.242188 -13.035156 L 30.246094 -12.941406 L 30.246094 -12.847656 C 30.246094 -10.921875 30.300781 -9.015625 30.410156 -7.117188 C 30.523438 -5.191406 30.664062 -3.25 30.832031 -1.292969 C 30.9375 -0.0195312 30.597656 1.042969 29.8125 1.902344 C 29.023438 2.761719 27.992188 3.191406 26.714844 3.191406 L 2.636719 3.191406 C 2.121094 3.191406 1.632812 3.085938 1.171875 2.878906 C 0.53125 2.585938 0.03125 2.140625 -0.332031 1.535156 C -0.796875 0.757812 -0.9375 -0.101562 -0.746094 -1.050781 L 2.382812 -0.425781 L -0.769531 -0.910156 C -0.679688 -1.515625 -0.605469 -2.746094 -0.550781 -4.601562 C -0.496094 -6.554688 -0.46875 -8.75 -0.46875 -11.1875 C -0.46875 -13.640625 -0.480469 -15.953125 -0.511719 -18.125 C -0.539062 -20.269531 -0.578125 -21.886719 -0.632812 -22.984375 L -0.636719 -23.0625 L -0.636719 -23.140625 C -0.636719 -24.488281 -0.652344 -26.261719 -0.679688 -28.460938 L -0.765625 -35.609375 L -0.851562 -43.058594 L -0.9375 -49.390625 C -0.964844 -51.214844 -0.980469 -52.480469 -0.980469 -53.175781 L -0.980469 -54.496094 L 1.230469 -56.707031 Z M 2.550781 -50.324219 L 2.550781 -53.515625 L 4.808594 -51.261719 L 4.46875 -50.917969 L 2.210938 -53.175781 L 5.402344 -53.175781 C 5.402344 -52.511719 5.417969 -51.277344 5.445312 -49.476562 L 5.53125 -43.128906 L 5.617188 -35.6875 L 5.699219 -28.542969 C 5.730469 -26.316406 5.742188 -24.515625 5.742188 -23.140625 L 2.550781 -23.140625 L 5.738281 -23.300781 C 5.796875 -22.128906 5.839844 -20.429688 5.871094 -18.207031 C 5.898438 -16.007812 5.914062 -13.667969 5.914062 -11.1875 C 5.914062 -8.691406 5.882812 -6.433594 5.828125 -4.417969 C 5.765625 -2.300781 5.667969 -0.808594 5.535156 0.0585938 L 5.511719 0.199219 C 5.644531 -0.464844 5.519531 -1.113281 5.140625 -1.746094 C 4.820312 -2.28125 4.378906 -2.675781 3.8125 -2.929688 C 3.433594 -3.105469 3.042969 -3.191406 2.636719 -3.191406 L 26.714844 -3.191406 C 26.53125 -3.191406 26.332031 -3.15625 26.121094 -3.082031 C 25.734375 -2.949219 25.394531 -2.726562 25.109375 -2.410156 C 24.820312 -2.097656 24.628906 -1.746094 24.53125 -1.347656 C 24.476562 -1.132812 24.457031 -0.933594 24.472656 -0.75 C 24.300781 -2.761719 24.15625 -4.761719 24.039062 -6.75 C 23.921875 -8.769531 23.863281 -10.800781 23.863281 -12.847656 L 27.054688 -12.847656 L 23.871094 -12.660156 C 23.8125 -13.675781 23.765625 -15.421875 23.738281 -17.902344 L 23.609375 -26.363281 C 23.554688 -29.585938 23.523438 -32.894531 23.523438 -36.289062 C 23.523438 -39.671875 23.539062 -42.816406 23.566406 -45.71875 C 23.597656 -48.710938 23.703125 -51.078125 23.882812 -52.824219 L 27.054688 -52.496094 L 23.863281 -52.496094 C 23.863281 -52.007812 24.066406 -51.542969 24.46875 -51.105469 C 24.945312 -50.585938 25.496094 -50.324219 26.121094 -50.324219 Z M 2.550781 -50.324219 "/></g></g></g><g fill="#222222" fill-opacity="1"><g transform="translate(2.347433, 68.120533)"><g><path d="M 2.546875 -53.515625 L 26.125 -53.515625 C 26.75 -53.515625 27.0625 -53.175781 27.0625 -52.5 C 26.882812 -50.851562 26.78125 -48.582031 26.75 -45.6875 C 26.726562 -42.789062 26.71875 -39.65625 26.71875 -36.28125 C 26.71875 -32.90625 26.742188 -29.613281 26.796875 -26.40625 C 26.859375 -23.207031 26.898438 -20.390625 26.921875 -17.953125 C 26.953125 -15.515625 27 -13.8125 27.0625 -12.84375 C 27.0625 -10.863281 27.113281 -8.894531 27.21875 -6.9375 C 27.332031 -4.976562 27.476562 -3.003906 27.65625 -1.015625 C 27.707031 -0.335938 27.394531 0 26.71875 0 L 2.640625 0 C 2.410156 0 2.320312 -0.140625 2.375 -0.421875 C 2.488281 -1.160156 2.570312 -2.519531 2.625 -4.5 C 2.6875 -6.488281 2.71875 -8.71875 2.71875 -11.1875 C 2.71875 -13.65625 2.703125 -15.976562 2.671875 -18.15625 C 2.648438 -20.34375 2.609375 -22.003906 2.546875 -23.140625 C 2.546875 -24.503906 2.53125 -26.289062 2.5 -28.5 C 2.476562 -30.707031 2.453125 -33.085938 2.421875 -35.640625 C 2.390625 -38.191406 2.359375 -40.671875 2.328125 -43.078125 C 2.304688 -45.492188 2.28125 -47.609375 2.25 -49.421875 C 2.226562 -51.242188 2.21875 -52.492188 2.21875 -53.171875 C 2.269531 -53.234375 2.378906 -53.347656 2.546875 -53.515625 Z M 2.546875 -53.515625 "/></g></g></g></g></g><g clip-path="url(#04bce160e0)"><g transform="matrix(1, 0, 0, 1, 214, 59)"><g clip-path="url(#a317b38c6d)"><g clip-path="url(#2f5acc78fd)"><path fill="#222222" d="M 0.839844 0.582031 L 21.996094 0.582031 L 21.996094 54.222656 L 0.839844 54.222656 Z M 0.839844 0.582031 " fill-opacity="1" fill-rule="nonzero"/></g></g></g></g><g clip-path="url(#19b523125a)"><g clip-path="url(#df083e3f79)"><g clip-path="url(#c1afe267f0)"><path fill="#ffffff" d="M 225.0625 42.960938 L 217.183594 72.226562 L 226.449219 71.910156 L 222.582031 99.683594 L 241.800781 63.066406 L 233.042969 63.273438 L 244.503906 42.714844 Z M 225.0625 42.960938 " fill-opacity="1" fill-rule="nonzero"/></g></g></g><g clip-path="url(#3634db90a1)"><g transform="matrix(1, 0, 0, 1, 107, 128)"><g clip-path="url(#e956c71bfc)"><g clip-path="url(#73770dbfe4)"><path fill="#ffffff" d="M 0.0859375 0.9375 L 160.871094 0.9375 L 160.871094 27.425781 L 0.0859375 27.425781 Z M 0.0859375 0.9375 " fill-opacity="1" fill-rule="nonzero"/></g></g></g></g><g transform="matrix(1, 0, 0, 1, 163, 45)"><g clip-path="url(#8a0f4da10b)"><g clip-path="url(#face66a29f)"><g fill="#ffffff" fill-opacity="1"><g transform="translate(2.113812, 68.120533)"><g><path d="M 53.046875 -25.015625 C 53.046875 -23.039062 52.945312 -20.980469 52.734375 -18.835938 C 52.515625 -16.554688 52.195312 -14.789062 51.777344 -13.539062 L 51.753906 -13.464844 L 50.832031 -11.09375 C 50.113281 -9.25 49.027344 -7.433594 47.566406 -5.640625 L 47.507812 -5.570312 L 47.445312 -5.5 C 46.679688 -4.667969 45.464844 -3.636719 43.792969 -2.40625 C 42.089844 -1.152344 40.382812 -0.164062 38.679688 0.554688 C 36.644531 1.382812 34.664062 1.984375 32.734375 2.363281 C 30.800781 2.746094 29.390625 2.933594 28.503906 2.933594 L 28.503906 -0.253906 L 28.855469 2.914062 C 28.253906 2.984375 27.371094 3.03125 26.203125 3.0625 C 25.097656 3.089844 23.992188 3.105469 22.886719 3.105469 L 20.503906 3.105469 L 20.503906 -0.0859375 L 20.578125 3.105469 L 18.75 3.148438 C 17.5625 3.175781 16.105469 3.191406 14.378906 3.191406 L 3.316406 3.191406 C 2.085938 3.191406 1.089844 2.769531 0.328125 1.921875 C -0.425781 1.082031 -0.746094 0.0507812 -0.621094 -1.167969 L -0.597656 -1.398438 L -0.542969 -1.625 C -0.488281 -1.84375 -0.449219 -2.652344 -0.425781 -4.054688 C -0.398438 -5.679688 -0.382812 -7.546875 -0.382812 -9.65625 L -0.382812 -15.78125 C -0.382812 -17.6875 -0.410156 -19.179688 -0.464844 -20.261719 L -0.464844 -20.304688 L -0.46875 -20.347656 C -0.523438 -22.820312 -0.609375 -25.289062 -0.71875 -27.761719 C -0.835938 -30.28125 -0.921875 -32.800781 -0.976562 -35.320312 L -0.980469 -35.359375 L -0.980469 -50.125 L -0.800781 -53.027344 L 2.382812 -52.835938 L -0.808594 -52.835938 C -0.808594 -53.945312 -0.441406 -54.867188 0.296875 -55.601562 C 1.03125 -56.339844 1.953125 -56.707031 3.0625 -56.707031 L 26.207031 -56.707031 L 26.207031 -50.324219 L 23.453125 -50.324219 L 23.453125 -56.707031 L 26.289062 -56.707031 C 29.753906 -56.707031 32.8125 -56.34375 35.472656 -55.617188 C 38.292969 -54.84375 41.152344 -53.261719 44.058594 -50.875 L 42.03125 -48.410156 L 43.996094 -50.925781 C 46.1875 -49.210938 47.886719 -47.148438 49.09375 -44.734375 C 50.191406 -42.542969 50.980469 -40.5 51.460938 -38.605469 C 51.90625 -36.859375 52.191406 -35.640625 52.316406 -34.945312 C 52.445312 -34.226562 52.574219 -33.195312 52.695312 -31.855469 C 52.8125 -30.558594 52.902344 -29.261719 52.960938 -27.964844 C 53.019531 -26.671875 53.046875 -25.6875 53.046875 -25.015625 Z M 46.667969 -25.015625 C 46.667969 -25.589844 46.640625 -26.476562 46.585938 -27.675781 C 46.53125 -28.875 46.449219 -30.078125 46.339844 -31.277344 C 46.234375 -32.429688 46.132812 -33.273438 46.039062 -33.800781 C 45.9375 -34.355469 45.683594 -35.429688 45.277344 -37.03125 C 44.90625 -38.484375 44.277344 -40.097656 43.386719 -41.878906 C 42.609375 -43.433594 41.503906 -44.773438 40.066406 -45.898438 L 40.003906 -45.945312 C 37.800781 -47.757812 35.730469 -48.929688 33.785156 -49.460938 C 31.679688 -50.039062 29.179688 -50.324219 26.289062 -50.324219 L 23.453125 -50.324219 C 23.03125 -50.324219 22.625 -50.40625 22.234375 -50.570312 C 21.84375 -50.730469 21.496094 -50.960938 21.199219 -51.261719 C 20.898438 -51.558594 20.667969 -51.90625 20.507812 -52.296875 C 20.34375 -52.6875 20.261719 -53.09375 20.261719 -53.515625 C 20.261719 -53.9375 20.34375 -54.347656 20.507812 -54.738281 C 20.667969 -55.128906 20.898438 -55.472656 21.199219 -55.773438 C 21.496094 -56.070312 21.84375 -56.300781 22.234375 -56.464844 C 22.625 -56.625 23.03125 -56.707031 23.453125 -56.707031 L 26.207031 -56.707031 L 26.207031 -50.324219 L 3.0625 -50.324219 C 3.71875 -50.324219 4.300781 -50.582031 4.808594 -51.089844 C 5.316406 -51.597656 5.574219 -52.179688 5.574219 -52.835938 L 5.574219 -52.738281 L 5.398438 -49.835938 L 2.210938 -50.027344 L 5.402344 -50.027344 L 5.402344 -35.394531 L 2.210938 -35.394531 L 5.402344 -35.464844 C 5.457031 -32.996094 5.542969 -30.523438 5.65625 -28.050781 C 5.769531 -25.53125 5.855469 -23.011719 5.914062 -20.492188 L 2.722656 -20.417969 L 5.910156 -20.578125 C 5.96875 -19.390625 6 -17.792969 6 -15.78125 L 6 -9.65625 C 6 -7.511719 5.984375 -5.605469 5.957031 -3.945312 C 5.921875 -2.054688 5.820312 -0.765625 5.648438 -0.078125 L 2.550781 -0.851562 L 5.726562 -0.535156 C 5.792969 -1.183594 5.574219 -1.789062 5.074219 -2.347656 C 4.769531 -2.683594 4.410156 -2.925781 3.992188 -3.070312 C 3.757812 -3.148438 3.53125 -3.191406 3.316406 -3.191406 L 14.378906 -3.191406 C 16.054688 -3.191406 17.460938 -3.203125 18.601562 -3.230469 L 20.46875 -3.277344 L 22.886719 -3.277344 C 23.9375 -3.277344 24.988281 -3.289062 26.035156 -3.316406 C 27.023438 -3.34375 27.730469 -3.378906 28.148438 -3.425781 L 28.324219 -3.445312 L 28.503906 -3.445312 C 28.976562 -3.445312 29.976562 -3.597656 31.503906 -3.894531 C 33.03125 -4.199219 34.59375 -4.671875 36.191406 -5.320312 C 37.4375 -5.847656 38.710938 -6.589844 40.011719 -7.546875 C 41.347656 -8.53125 42.257812 -9.285156 42.742188 -9.8125 L 45.09375 -7.65625 L 42.621094 -9.671875 C 43.65625 -10.945312 44.410156 -12.1875 44.882812 -13.40625 L 45.777344 -15.707031 L 48.75 -14.550781 L 45.726562 -15.558594 C 45.988281 -16.351562 46.207031 -17.648438 46.382812 -19.453125 C 46.574219 -21.390625 46.667969 -23.246094 46.667969 -25.015625 Z M 24.597656 -22.179688 C 24.679688 -22.640625 24.734375 -23.371094 24.757812 -24.367188 C 24.785156 -25.480469 24.785156 -26.621094 24.757812 -27.789062 C 24.734375 -28.945312 24.695312 -29.832031 24.640625 -30.449219 L 27.820312 -30.714844 L 24.652344 -30.351562 C 24.558594 -31.148438 24.445312 -31.777344 24.304688 -32.234375 C 24.257812 -32.378906 24.21875 -32.484375 24.183594 -32.554688 C 24.203125 -32.515625 24.25 -32.460938 24.320312 -32.386719 C 24.273438 -32.433594 24.234375 -32.46875 24.207031 -32.496094 C 24.210938 -32.488281 24.230469 -32.480469 24.257812 -32.464844 C 24.46875 -32.347656 24.71875 -32.289062 25.015625 -32.289062 C 25.328125 -32.289062 25.640625 -32.378906 25.949219 -32.554688 C 26.292969 -32.753906 26.550781 -33.015625 26.722656 -33.339844 C 26.785156 -33.457031 26.828125 -33.554688 26.847656 -33.636719 C 26.839844 -33.601562 26.828125 -33.539062 26.816406 -33.449219 C 26.777344 -33.136719 26.757812 -32.707031 26.757812 -32.160156 L 26.757812 -21.695312 C 26.757812 -20.871094 26.8125 -20.171875 26.917969 -19.597656 C 26.851562 -19.941406 26.652344 -20.265625 26.3125 -20.558594 C 25.929688 -20.890625 25.527344 -21.058594 25.097656 -21.058594 C 25.015625 -21.058594 24.902344 -21.023438 24.75 -20.953125 C 24.476562 -20.820312 24.261719 -20.632812 24.101562 -20.378906 C 24.234375 -20.585938 24.402344 -21.203125 24.609375 -22.238281 Z M 30.867188 -20.984375 C 30.503906 -19.179688 30.050781 -17.84375 29.5 -16.972656 C 29 -16.179688 28.328125 -15.585938 27.488281 -15.1875 C 26.773438 -14.847656 25.976562 -14.675781 25.097656 -14.675781 C 23.933594 -14.675781 22.941406 -15.035156 22.121094 -15.75 C 21.339844 -16.425781 20.847656 -17.324219 20.644531 -18.433594 C 20.464844 -19.390625 20.375 -20.480469 20.375 -21.695312 L 20.375 -32.160156 C 20.375 -34.054688 20.617188 -35.449219 21.09375 -36.34375 C 21.492188 -37.09375 22.046875 -37.671875 22.761719 -38.082031 C 23.4375 -38.472656 24.1875 -38.667969 25.015625 -38.667969 C 26.4375 -38.667969 27.746094 -38.042969 28.941406 -36.785156 C 30 -35.675781 30.683594 -33.769531 30.992188 -31.078125 L 30.996094 -31.027344 L 31 -30.980469 C 31.0625 -30.234375 31.109375 -29.222656 31.140625 -27.9375 C 31.167969 -26.667969 31.167969 -25.425781 31.140625 -24.214844 C 31.105469 -22.882812 31.019531 -21.828125 30.875 -21.039062 Z M 30.867188 -20.984375 "/></g></g></g></g><g fill="#222222" fill-opacity="1"><g transform="translate(2.113812, 68.120533)"><g><path d="M 49.859375 -25.015625 C 49.859375 -23.140625 49.757812 -21.179688 49.5625 -19.140625 C 49.363281 -17.097656 49.09375 -15.566406 48.75 -14.546875 C 48.75 -14.546875 48.453125 -13.78125 47.859375 -12.25 C 47.265625 -10.71875 46.34375 -9.1875 45.09375 -7.65625 C 44.46875 -6.976562 43.398438 -6.082031 41.890625 -4.96875 C 40.390625 -3.863281 38.90625 -3 37.4375 -2.375 C 35.625 -1.644531 33.847656 -1.109375 32.109375 -0.765625 C 30.378906 -0.421875 29.175781 -0.25 28.5 -0.25 C 27.988281 -0.195312 27.191406 -0.15625 26.109375 -0.125 C 25.035156 -0.09375 23.957031 -0.078125 22.875 -0.078125 C 21.800781 -0.078125 21.007812 -0.078125 20.5 -0.078125 C 20.445312 -0.078125 19.835938 -0.0625 18.671875 -0.03125 C 17.515625 -0.0078125 16.082031 0 14.375 0 C 12.675781 0 10.972656 0 9.265625 0 C 7.566406 0 6.148438 0 5.015625 0 C 3.878906 0 3.3125 0 3.3125 0 C 2.75 0 2.492188 -0.28125 2.546875 -0.84375 C 2.660156 -1.300781 2.734375 -2.351562 2.765625 -4 C 2.796875 -5.644531 2.8125 -7.53125 2.8125 -9.65625 C 2.8125 -11.78125 2.8125 -13.820312 2.8125 -15.78125 C 2.8125 -17.738281 2.78125 -19.285156 2.71875 -20.421875 C 2.664062 -22.910156 2.582031 -25.40625 2.46875 -27.90625 C 2.351562 -30.40625 2.269531 -32.898438 2.21875 -35.390625 L 2.21875 -50.03125 C 2.269531 -50.9375 2.320312 -51.867188 2.375 -52.828125 C 2.375 -53.285156 2.601562 -53.515625 3.0625 -53.515625 L 26.203125 -53.515625 C 26.203125 -53.515625 25.929688 -53.515625 25.390625 -53.515625 C 24.859375 -53.515625 24.363281 -53.515625 23.90625 -53.515625 C 23.445312 -53.515625 23.332031 -53.515625 23.5625 -53.515625 C 23.789062 -53.515625 24.703125 -53.515625 26.296875 -53.515625 C 29.460938 -53.515625 32.238281 -53.1875 34.625 -52.53125 C 37.007812 -51.882812 39.476562 -50.507812 42.03125 -48.40625 C 43.84375 -46.988281 45.242188 -45.285156 46.234375 -43.296875 C 47.234375 -41.316406 47.941406 -39.488281 48.359375 -37.8125 C 48.785156 -36.144531 49.054688 -35 49.171875 -34.375 C 49.285156 -33.75 49.398438 -32.8125 49.515625 -31.5625 C 49.628906 -30.3125 49.710938 -29.0625 49.765625 -27.8125 C 49.828125 -26.570312 49.859375 -25.640625 49.859375 -25.015625 Z M 27.734375 -21.609375 C 27.847656 -22.234375 27.914062 -23.125 27.9375 -24.28125 C 27.96875 -25.445312 27.96875 -26.640625 27.9375 -27.859375 C 27.914062 -29.078125 27.878906 -30.03125 27.828125 -30.71875 C 27.597656 -32.695312 27.195312 -33.984375 26.625 -34.578125 C 26.0625 -35.179688 25.523438 -35.484375 25.015625 -35.484375 C 24.503906 -35.484375 24.132812 -35.269531 23.90625 -34.84375 C 23.675781 -34.414062 23.5625 -33.519531 23.5625 -32.15625 L 23.5625 -21.6875 C 23.5625 -20.664062 23.628906 -19.769531 23.765625 -19 C 23.910156 -18.238281 24.351562 -17.859375 25.09375 -17.859375 C 25.894531 -17.859375 26.460938 -18.128906 26.796875 -18.671875 C 27.140625 -19.210938 27.453125 -20.191406 27.734375 -21.609375 Z M 27.734375 -21.609375 "/></g></g></g></g></g><g transform="matrix(1, 0, 0, 1, 119, 45)"><g clip-path="url(#71b0b79915)"><g fill="#ffffff" fill-opacity="1"><g transform="translate(2.170509, 68.120533)"><g><path d="M 48.203125 -17.675781 C 48.78125 -16.515625 49.351562 -15.082031 49.914062 -13.371094 C 50.4375 -11.769531 50.933594 -10.136719 51.398438 -8.476562 C 51.859375 -6.835938 52.246094 -5.394531 52.566406 -4.152344 C 52.90625 -2.820312 53.113281 -1.898438 53.1875 -1.386719 L 50.027344 -0.9375 L 53.167969 -1.507812 C 53.359375 -0.457031 53.230469 0.476562 52.785156 1.292969 C 52.425781 1.957031 51.90625 2.457031 51.230469 2.796875 C 50.703125 3.058594 50.132812 3.191406 49.515625 3.191406 L 30.542969 3.191406 C 29.433594 3.191406 28.523438 2.765625 27.816406 1.914062 C 27.375 1.386719 27.09375 0.753906 26.972656 0.015625 L 30.117188 -0.511719 L 27.050781 0.367188 C 26.953125 0.0195312 26.714844 -0.707031 26.332031 -1.820312 C 25.949219 -2.941406 25.496094 -4.175781 24.972656 -5.523438 C 24.453125 -6.875 23.957031 -8.082031 23.492188 -9.148438 C 23.132812 -9.976562 22.90625 -10.441406 22.816406 -10.550781 L 25.269531 -12.59375 L 23.011719 -10.335938 C 23.328125 -10.023438 23.710938 -9.820312 24.164062 -9.730469 C 24.542969 -9.652344 24.890625 -9.671875 25.214844 -9.777344 C 25.589844 -9.902344 25.914062 -10.132812 26.1875 -10.46875 C 26.449219 -10.789062 26.601562 -11.140625 26.648438 -11.515625 L 23.484375 -11.910156 L 26.667969 -11.707031 C 26.554688 -10 26.488281 -8.222656 26.460938 -6.375 C 26.433594 -4.523438 26.445312 -2.714844 26.5 -0.949219 L 23.3125 -0.851562 L 26.488281 -1.167969 C 26.585938 -0.183594 26.410156 0.683594 25.964844 1.429688 C 25.601562 2.03125 25.109375 2.488281 24.484375 2.800781 C 23.964844 3.0625 23.402344 3.191406 22.800781 3.191406 L 2.894531 3.191406 C 2.304688 3.191406 1.753906 3.0625 1.242188 2.804688 C 0.671875 2.519531 0.210938 2.113281 -0.144531 1.578125 C -0.585938 0.914062 -0.808594 0.132812 -0.808594 -0.765625 L -0.808594 -7.996094 C -0.808594 -8.304688 -0.792969 -9.070312 -0.765625 -10.285156 C -0.738281 -11.453125 -0.722656 -12.84375 -0.722656 -14.464844 L -0.722656 -19.398438 C -0.722656 -21.019531 -0.738281 -22.410156 -0.765625 -23.578125 C -0.792969 -24.792969 -0.808594 -25.554688 -0.808594 -25.863281 L -0.808594 -36.414062 L -0.636719 -44.777344 C -0.582031 -47.539062 -0.582031 -50.289062 -0.636719 -53.027344 C -0.636719 -53.800781 -0.464844 -54.476562 -0.121094 -55.050781 C 0.195312 -55.574219 0.617188 -55.984375 1.144531 -56.277344 C 1.660156 -56.5625 2.214844 -56.707031 2.808594 -56.707031 L 38.882812 -56.707031 C 40.335938 -56.707031 41.777344 -56.359375 43.210938 -55.664062 C 44.425781 -55.074219 45.582031 -54.332031 46.679688 -53.441406 L 46.730469 -53.398438 L 46.777344 -53.355469 C 47.988281 -52.289062 49 -51.078125 49.824219 -49.722656 C 50.519531 -48.570312 51.027344 -47.675781 51.351562 -47.03125 L 51.390625 -46.953125 L 51.425781 -46.871094 C 52.292969 -44.863281 52.832031 -42.8125 53.035156 -40.722656 C 53.214844 -38.859375 53.304688 -36.746094 53.304688 -34.371094 C 53.304688 -32.6875 53.152344 -30.792969 52.84375 -28.683594 C 52.519531 -26.433594 52.070312 -24.667969 51.496094 -23.378906 L 48.582031 -24.671875 L 51.527344 -23.445312 C 51.183594 -22.621094 50.714844 -21.71875 50.125 -20.734375 C 49.601562 -19.859375 49.132812 -19.097656 48.722656 -18.453125 C 48.199219 -17.628906 47.828125 -17.109375 47.605469 -16.886719 L 46.671875 -15.953125 L 45.261719 -15.953125 L 45.261719 -19.144531 L 47.519531 -16.886719 C 47.660156 -17.027344 47.773438 -17.214844 47.855469 -17.449219 C 47.964844 -17.757812 47.992188 -18.066406 47.9375 -18.378906 C 47.96875 -18.203125 48.058594 -17.96875 48.203125 -17.675781 Z M 42.496094 -14.824219 C 42.074219 -15.667969 41.792969 -16.484375 41.652344 -17.269531 C 41.511719 -18.0625 41.574219 -18.835938 41.839844 -19.582031 C 42.082031 -20.253906 42.46875 -20.859375 43.007812 -21.398438 L 43.941406 -22.335938 L 45.347656 -22.335938 L 45.347656 -19.144531 L 43.09375 -21.398438 C 42.980469 -21.289062 42.894531 -21.1875 42.828125 -21.09375 C 42.84375 -21.117188 42.867188 -21.15625 42.90625 -21.210938 C 43.007812 -21.363281 43.152344 -21.585938 43.335938 -21.878906 C 43.71875 -22.476562 44.160156 -23.191406 44.65625 -24.019531 C 45.085938 -24.734375 45.414062 -25.363281 45.636719 -25.902344 L 45.652344 -25.933594 L 45.664062 -25.96875 C 46 -26.722656 46.289062 -27.933594 46.53125 -29.597656 C 46.792969 -31.402344 46.921875 -32.996094 46.921875 -34.371094 C 46.921875 -36.539062 46.84375 -38.449219 46.683594 -40.105469 C 46.542969 -41.53125 46.171875 -42.941406 45.570312 -44.335938 L 48.496094 -45.605469 L 45.640625 -44.175781 C 45.398438 -44.667969 44.972656 -45.414062 44.363281 -46.417969 C 43.878906 -47.21875 43.277344 -47.9375 42.558594 -48.570312 L 44.667969 -50.964844 L 42.65625 -48.488281 C 41.9375 -49.070312 41.195312 -49.546875 40.421875 -49.921875 C 39.871094 -50.191406 39.355469 -50.324219 38.882812 -50.324219 L 2.808594 -50.324219 C 3.316406 -50.324219 3.796875 -50.449219 4.246094 -50.699219 C 4.710938 -50.960938 5.082031 -51.316406 5.351562 -51.769531 C 5.613281 -52.203125 5.742188 -52.664062 5.742188 -53.15625 C 5.800781 -50.332031 5.800781 -47.496094 5.742188 -44.644531 L 5.574219 -36.414062 L 5.574219 -25.863281 C 5.574219 -25.605469 5.585938 -24.894531 5.613281 -23.730469 C 5.644531 -22.511719 5.65625 -21.070312 5.65625 -19.398438 L 5.65625 -14.464844 C 5.65625 -12.792969 5.644531 -11.351562 5.613281 -10.132812 C 5.585938 -8.96875 5.574219 -8.257812 5.574219 -7.996094 L 5.574219 -0.765625 C 5.574219 -1.15625 5.4375 -1.554688 5.164062 -1.960938 C 4.894531 -2.367188 4.539062 -2.679688 4.097656 -2.902344 C 3.710938 -3.09375 3.308594 -3.191406 2.894531 -3.191406 L 22.800781 -3.191406 C 22.398438 -3.191406 22.007812 -3.097656 21.628906 -2.90625 C 21.148438 -2.664062 20.765625 -2.316406 20.492188 -1.855469 C 20.214844 -1.390625 20.09375 -0.953125 20.136719 -0.535156 L 20.125 -0.640625 L 20.125 -0.75 C 20.066406 -2.617188 20.050781 -4.523438 20.078125 -6.472656 C 20.109375 -8.425781 20.179688 -10.304688 20.296875 -12.117188 L 20.304688 -12.210938 L 20.316406 -12.308594 C 20.421875 -13.136719 20.722656 -13.863281 21.226562 -14.484375 C 21.738281 -15.113281 22.394531 -15.5625 23.195312 -15.832031 C 23.945312 -16.082031 24.683594 -16.132812 25.417969 -15.988281 C 26.226562 -15.824219 26.929688 -15.445312 27.523438 -14.847656 L 27.628906 -14.746094 L 27.71875 -14.632812 C 28.199219 -14.0625 28.738281 -13.082031 29.34375 -11.699219 C 29.84375 -10.550781 30.371094 -9.261719 30.925781 -7.832031 C 31.480469 -6.402344 31.960938 -5.085938 32.371094 -3.882812 C 32.789062 -2.667969 33.058594 -1.835938 33.1875 -1.386719 L 33.238281 -1.214844 L 33.265625 -1.035156 C 33.199219 -1.433594 33.015625 -1.8125 32.71875 -2.171875 C 32.152344 -2.851562 31.425781 -3.191406 30.542969 -3.191406 L 49.515625 -3.191406 C 49.128906 -3.191406 48.75 -3.097656 48.378906 -2.914062 C 47.859375 -2.652344 47.460938 -2.269531 47.183594 -1.761719 C 46.910156 -1.257812 46.8125 -0.792969 46.886719 -0.363281 L 46.878906 -0.425781 L 46.871094 -0.484375 C 46.828125 -0.765625 46.667969 -1.460938 46.382812 -2.570312 C 46.078125 -3.765625 45.703125 -5.160156 45.253906 -6.753906 C 44.8125 -8.324219 44.34375 -9.871094 43.847656 -11.386719 C 43.386719 -12.796875 42.933594 -13.941406 42.496094 -14.824219 Z M 23.953125 -31.035156 C 24.007812 -32.148438 24.019531 -33.15625 23.992188 -34.070312 C 23.96875 -34.960938 23.90625 -35.808594 23.804688 -36.613281 C 23.742188 -37.183594 23.664062 -37.609375 23.570312 -37.882812 C 23.558594 -37.917969 23.550781 -37.941406 23.542969 -37.960938 C 23.542969 -37.957031 23.550781 -37.945312 23.558594 -37.929688 C 23.632812 -37.804688 23.738281 -37.679688 23.882812 -37.554688 C 23.894531 -37.539062 23.9375 -37.519531 24 -37.492188 C 24.15625 -37.425781 24.320312 -37.394531 24.503906 -37.394531 C 24.832031 -37.394531 25.132812 -37.484375 25.398438 -37.671875 C 25.582031 -37.800781 25.753906 -37.980469 25.902344 -38.207031 C 26.191406 -38.636719 26.332031 -39.117188 26.332031 -39.648438 L 26.332031 -36.839844 C 26.332031 -35.914062 26.320312 -34.6875 26.289062 -33.164062 C 26.261719 -31.742188 26.277344 -30.59375 26.328125 -29.710938 L 26.332031 -29.617188 L 26.332031 -29.523438 C 26.332031 -29.359375 26.363281 -29.136719 26.425781 -28.855469 C 26.308594 -29.394531 26.015625 -29.832031 25.550781 -30.164062 C 25.273438 -30.359375 25.011719 -30.46875 24.769531 -30.492188 L 24.503906 -27.3125 L 24.503906 -30.5 C 24.296875 -30.5 24.109375 -30.460938 23.945312 -30.382812 C 23.90625 -30.363281 23.878906 -30.347656 23.855469 -30.332031 C 23.867188 -30.335938 23.882812 -30.351562 23.90625 -30.375 C 23.851562 -30.320312 23.808594 -30.269531 23.78125 -30.222656 L 23.78125 -30.21875 C 23.785156 -30.234375 23.792969 -30.253906 23.804688 -30.277344 C 23.875 -30.484375 23.929688 -30.777344 23.960938 -31.160156 L 27.140625 -30.882812 Z M 30.328125 -30.734375 L 30.320312 -30.609375 C 30.140625 -28.53125 29.503906 -26.949219 28.417969 -25.863281 C 27.257812 -24.703125 25.953125 -24.121094 24.503906 -24.121094 L 24.371094 -24.121094 L 24.238281 -24.132812 C 23.316406 -24.207031 22.515625 -24.488281 21.839844 -24.96875 C 20.980469 -25.585938 20.429688 -26.417969 20.199219 -27.46875 C 20.035156 -28.207031 19.953125 -28.894531 19.953125 -29.523438 L 23.140625 -29.523438 L 19.957031 -29.335938 C 19.894531 -30.382812 19.878906 -31.699219 19.910156 -33.285156 C 19.9375 -34.765625 19.953125 -35.953125 19.953125 -36.839844 L 19.953125 -39.648438 C 19.953125 -40.40625 20.164062 -41.105469 20.59375 -41.746094 C 20.886719 -42.1875 21.269531 -42.570312 21.738281 -42.898438 C 22.570312 -43.484375 23.492188 -43.773438 24.503906 -43.773438 C 25.816406 -43.773438 27.019531 -43.296875 28.101562 -42.339844 C 29.203125 -41.371094 29.878906 -39.726562 30.136719 -37.40625 C 30.261719 -36.398438 30.339844 -35.347656 30.371094 -34.25 C 30.402344 -33.175781 30.390625 -32.003906 30.328125 -30.734375 Z M 30.328125 -30.734375 "/></g></g></g><g fill="#222222" fill-opacity="1"><g transform="translate(2.170509, 68.120533)"><g><path d="M 45.34375 -16.25 C 45.851562 -15.226562 46.363281 -13.9375 46.875 -12.375 C 47.382812 -10.820312 47.863281 -9.234375 48.3125 -7.609375 C 48.769531 -5.992188 49.15625 -4.578125 49.46875 -3.359375 C 49.78125 -2.140625 49.96875 -1.332031 50.03125 -0.9375 C 50.144531 -0.3125 49.972656 0 49.515625 0 L 30.546875 0 C 30.316406 0 30.175781 -0.171875 30.125 -0.515625 C 30.007812 -0.910156 29.75 -1.6875 29.34375 -2.84375 C 28.945312 -4.007812 28.476562 -5.285156 27.9375 -6.671875 C 27.40625 -8.066406 26.894531 -9.316406 26.40625 -10.421875 C 25.925781 -11.523438 25.546875 -12.25 25.265625 -12.59375 C 24.984375 -12.875 24.628906 -12.941406 24.203125 -12.796875 C 23.773438 -12.660156 23.535156 -12.363281 23.484375 -11.90625 C 23.367188 -10.15625 23.296875 -8.328125 23.265625 -6.421875 C 23.234375 -4.523438 23.25 -2.664062 23.3125 -0.84375 C 23.363281 -0.28125 23.191406 0 22.796875 0 L 2.890625 0 C 2.546875 0 2.375 -0.253906 2.375 -0.765625 L 2.375 -8 C 2.375 -8.28125 2.390625 -9.015625 2.421875 -10.203125 C 2.453125 -11.398438 2.46875 -12.820312 2.46875 -14.46875 C 2.46875 -16.113281 2.46875 -17.753906 2.46875 -19.390625 C 2.46875 -21.035156 2.453125 -22.453125 2.421875 -23.640625 C 2.390625 -24.835938 2.375 -25.578125 2.375 -25.859375 L 2.375 -36.40625 C 2.4375 -39.132812 2.492188 -41.898438 2.546875 -44.703125 C 2.609375 -47.515625 2.609375 -50.3125 2.546875 -53.09375 C 2.546875 -53.375 2.632812 -53.515625 2.8125 -53.515625 L 38.875 -53.515625 C 39.84375 -53.515625 40.820312 -53.269531 41.8125 -52.78125 C 42.8125 -52.300781 43.765625 -51.695312 44.671875 -50.96875 C 45.628906 -50.113281 46.429688 -49.144531 47.078125 -48.0625 C 47.734375 -46.988281 48.207031 -46.171875 48.5 -45.609375 C 49.226562 -43.898438 49.675781 -42.164062 49.84375 -40.40625 C 50.019531 -38.65625 50.109375 -36.644531 50.109375 -34.375 C 50.109375 -32.84375 49.96875 -31.097656 49.6875 -29.140625 C 49.40625 -27.179688 49.035156 -25.691406 48.578125 -24.671875 C 48.296875 -23.992188 47.898438 -23.226562 47.390625 -22.375 C 46.878906 -21.519531 46.425781 -20.78125 46.03125 -20.15625 C 45.632812 -19.539062 45.40625 -19.203125 45.34375 -19.140625 C 45.34375 -19.140625 45.316406 -19.140625 45.265625 -19.140625 C 44.867188 -18.742188 44.710938 -18.300781 44.796875 -17.8125 C 44.878906 -17.332031 45.0625 -16.8125 45.34375 -16.25 Z M 27.140625 -30.890625 C 27.191406 -32.078125 27.203125 -33.164062 27.171875 -34.15625 C 27.148438 -35.144531 27.082031 -36.097656 26.96875 -37.015625 C 26.800781 -38.546875 26.472656 -39.519531 25.984375 -39.9375 C 25.503906 -40.363281 25.007812 -40.578125 24.5 -40.578125 C 24.15625 -40.578125 23.84375 -40.476562 23.5625 -40.28125 C 23.28125 -40.082031 23.140625 -39.867188 23.140625 -39.640625 C 23.140625 -39.304688 23.140625 -38.882812 23.140625 -38.375 C 23.140625 -37.863281 23.140625 -37.351562 23.140625 -36.84375 C 23.140625 -35.9375 23.125 -34.726562 23.09375 -33.21875 C 23.070312 -31.71875 23.085938 -30.484375 23.140625 -29.515625 C 23.140625 -29.117188 23.195312 -28.664062 23.3125 -28.15625 C 23.425781 -27.644531 23.820312 -27.363281 24.5 -27.3125 C 25.070312 -27.3125 25.625 -27.578125 26.15625 -28.109375 C 26.695312 -28.648438 27.023438 -29.578125 27.140625 -30.890625 Z M 27.140625 -30.890625 "/></g></g></g></g></g><g transform="matrix(1, 0, 0, 1, 76, 44)"><g clip-path="url(#fae9ffa817)"><g clip-path="url(#3b66120a3d)"><g fill="#ffffff" fill-opacity="1"><g transform="translate(2.304071, 68.699816)"><g><path d="M 51.390625 3.191406 L 23.652344 3.191406 C 22.515625 3.191406 21.601562 2.757812 20.90625 1.886719 C 20.382812 1.234375 20.121094 0.460938 20.121094 -0.425781 L 20.121094 -0.507812 L 20.125 -0.59375 C 20.183594 -1.710938 20.300781 -3.214844 20.476562 -5.101562 C 20.648438 -6.957031 20.832031 -8.832031 21.03125 -10.714844 L 21.5625 -15.632812 L 21.820312 -16.144531 C 22.269531 -17.046875 23 -17.664062 24.003906 -18 C 24.503906 -18.167969 24.980469 -18.25 25.4375 -18.25 L 26.191406 -18.25 L 26.867188 -17.914062 C 26.554688 -18.066406 26.28125 -18.15625 26.042969 -18.175781 C 26.125 -18.167969 26.265625 -18.164062 26.460938 -18.164062 L 29.351562 -18.164062 L 29.351562 -14.972656 L 27.996094 -17.863281 L 28.71875 -18.203125 C 28.378906 -18.042969 28.101562 -17.789062 27.890625 -17.4375 C 27.703125 -17.128906 27.609375 -16.816406 27.609375 -16.503906 L 30.800781 -16.503906 L 27.671875 -15.878906 C 27.601562 -16.222656 27.464844 -17.117188 27.257812 -18.566406 L 26.578125 -23.328125 C 26.320312 -25.136719 26.089844 -26.878906 25.886719 -28.546875 C 25.683594 -30.242188 25.550781 -31.511719 25.488281 -32.359375 L 25.488281 -32.398438 L 25.484375 -32.441406 C 25.441406 -33.394531 25.324219 -34.15625 25.136719 -34.726562 L 25.132812 -34.742188 C 25.191406 -34.640625 25.269531 -34.539062 25.375 -34.433594 C 25.785156 -34.023438 26.289062 -33.820312 26.886719 -33.820312 L 26.773438 -33.820312 L 26.660156 -33.828125 C 27.007812 -33.804688 27.351562 -33.90625 27.691406 -34.140625 C 27.957031 -34.328125 28.132812 -34.523438 28.210938 -34.730469 C 27.988281 -34.144531 27.863281 -33.753906 27.839844 -33.550781 C 27.660156 -32.242188 27.371094 -30.429688 26.964844 -28.121094 C 26.566406 -25.839844 26.109375 -23.332031 25.597656 -20.597656 C 25.089844 -17.894531 24.613281 -15.195312 24.164062 -12.492188 C 23.714844 -9.796875 23.335938 -7.34375 23.027344 -5.132812 C 22.726562 -2.988281 22.554688 -1.367188 22.5 -0.273438 L 19.3125 -0.425781 L 22.503906 -0.425781 C 22.503906 0.304688 22.332031 0.960938 21.984375 1.535156 C 21.671875 2.058594 21.25 2.46875 20.71875 2.761719 C 20.207031 3.046875 19.652344 3.191406 19.058594 3.191406 L 1.871094 3.191406 C 1.273438 3.191406 0.714844 3.050781 0.199219 2.769531 C -0.425781 2.429688 -0.894531 1.9375 -1.214844 1.300781 C -1.566406 0.59375 -1.671875 -0.183594 -1.53125 -1.035156 L -1.511719 -1.160156 L -1.480469 -1.285156 C -1.457031 -1.371094 -1.441406 -1.472656 -1.425781 -1.585938 C -1.382812 -1.984375 -1.316406 -2.363281 -1.222656 -2.730469 L 1.871094 -1.957031 L -1.242188 -2.648438 C -1.132812 -3.140625 -0.910156 -4.214844 -0.574219 -5.867188 L 0.574219 -11.523438 L 1.808594 -17.609375 C 2.21875 -19.625 2.570312 -21.199219 2.871094 -22.335938 L 5.957031 -21.527344 L 2.800781 -22.011719 C 2.917969 -22.773438 3.136719 -24.042969 3.453125 -25.828125 C 3.761719 -27.566406 4.097656 -29.578125 4.464844 -31.859375 L 5.613281 -38.925781 C 6.007812 -41.320312 6.359375 -43.585938 6.667969 -45.71875 C 6.984375 -47.890625 7.253906 -49.695312 7.484375 -51.128906 C 7.683594 -52.378906 7.785156 -53.0625 7.785156 -53.175781 L 7.785156 -53.570312 L 7.878906 -53.949219 C 8.050781 -54.636719 8.375 -55.214844 8.847656 -55.6875 C 9.527344 -56.367188 10.351562 -56.707031 11.316406 -56.707031 L 42.285156 -56.707031 C 42.878906 -56.707031 43.433594 -56.558594 43.949219 -56.265625 C 44.355469 -56.03125 44.703125 -55.726562 44.988281 -55.34375 C 45.289062 -54.945312 45.503906 -54.480469 45.636719 -53.949219 L 45.65625 -53.875 L 45.667969 -53.800781 C 45.789062 -53.207031 46.003906 -52.007812 46.320312 -50.195312 L 47.34375 -44.183594 L 48.410156 -37.835938 C 48.746094 -35.855469 49.023438 -34.316406 49.242188 -33.210938 L 49.25 -33.175781 L 49.257812 -33.136719 C 49.660156 -30.84375 50.03125 -28.546875 50.375 -26.253906 L 51.398438 -19.445312 L 48.242188 -18.972656 L 51.335938 -19.746094 C 51.472656 -19.199219 51.648438 -18.238281 51.863281 -16.867188 C 52.054688 -15.628906 52.304688 -14.222656 52.609375 -12.644531 C 52.921875 -11.007812 53.226562 -9.355469 53.511719 -7.6875 C 53.789062 -6.085938 54.050781 -4.710938 54.296875 -3.5625 C 54.566406 -2.296875 54.734375 -1.429688 54.804688 -0.960938 L 51.644531 -0.511719 L 54.671875 -1.519531 C 55.007812 -0.511719 54.957031 0.425781 54.519531 1.300781 C 54.164062 2.007812 53.625 2.53125 52.902344 2.863281 C 52.429688 3.082031 51.925781 3.191406 51.390625 3.191406 Z M 51.390625 -3.191406 C 50.992188 -3.191406 50.605469 -3.101562 50.226562 -2.929688 C 49.597656 -2.636719 49.125 -2.179688 48.8125 -1.554688 C 48.460938 -0.851562 48.394531 -0.167969 48.617188 0.5 L 48.527344 0.226562 L 48.484375 -0.0585938 C 48.441406 -0.382812 48.296875 -1.105469 48.054688 -2.222656 C 47.792969 -3.457031 47.515625 -4.917969 47.222656 -6.605469 C 46.945312 -8.230469 46.648438 -9.839844 46.34375 -11.433594 C 46.023438 -13.089844 45.761719 -14.574219 45.554688 -15.886719 C 45.371094 -17.070312 45.234375 -17.839844 45.144531 -18.199219 L 45.109375 -18.347656 L 44.066406 -25.304688 C 43.726562 -27.550781 43.363281 -29.792969 42.972656 -32.035156 L 46.113281 -32.585938 L 42.984375 -31.960938 C 42.753906 -33.125 42.460938 -34.734375 42.117188 -36.78125 L 41.054688 -43.113281 L 40.035156 -49.097656 C 39.726562 -50.855469 39.519531 -52.007812 39.410156 -52.550781 L 42.539062 -53.175781 L 39.445312 -52.402344 C 39.519531 -52.097656 39.667969 -51.804688 39.882812 -51.515625 C 40.125 -51.191406 40.425781 -50.929688 40.78125 -50.726562 C 41.246094 -50.457031 41.75 -50.324219 42.285156 -50.324219 L 11.316406 -50.324219 C 12.113281 -50.324219 12.792969 -50.609375 13.359375 -51.175781 C 13.71875 -51.535156 13.957031 -51.945312 14.070312 -52.402344 L 10.976562 -53.175781 L 14.167969 -53.175781 C 14.167969 -52.722656 14.039062 -51.703125 13.785156 -50.121094 C 13.5625 -48.71875 13.292969 -46.945312 12.984375 -44.804688 C 12.667969 -42.628906 12.3125 -40.328125 11.914062 -37.902344 L 10.765625 -30.847656 C 10.394531 -28.53125 10.050781 -26.488281 9.734375 -24.710938 C 9.429688 -22.976562 9.21875 -21.753906 9.109375 -21.039062 L 9.082031 -20.875 L 9.042969 -20.714844 C 8.773438 -19.695312 8.445312 -18.238281 8.0625 -16.339844 L 6.828125 -10.253906 L 5.679688 -4.597656 C 5.335938 -2.90625 5.105469 -1.792969 4.988281 -1.265625 L 4.976562 -1.222656 L 4.96875 -1.183594 C 4.945312 -1.09375 4.929688 -0.996094 4.914062 -0.882812 C 4.871094 -0.484375 4.804688 -0.101562 4.710938 0.261719 L 1.617188 -0.511719 L 4.765625 0.015625 C 4.847656 -0.5 4.757812 -1.019531 4.492188 -1.554688 C 4.214844 -2.109375 3.804688 -2.535156 3.257812 -2.832031 C 2.820312 -3.070312 2.359375 -3.191406 1.871094 -3.191406 L 19.058594 -3.191406 C 18.550781 -3.191406 18.070312 -3.066406 17.621094 -2.816406 C 17.15625 -2.558594 16.785156 -2.199219 16.511719 -1.746094 C 16.253906 -1.3125 16.121094 -0.871094 16.121094 -0.425781 L 16.121094 -0.5 L 16.125 -0.578125 C 16.1875 -1.863281 16.382812 -3.675781 16.707031 -6.011719 C 17.023438 -8.28125 17.410156 -10.792969 17.867188 -13.542969 C 18.324219 -16.285156 18.8125 -19.03125 19.324219 -21.773438 C 19.832031 -24.484375 20.285156 -26.964844 20.679688 -29.222656 C 21.070312 -31.453125 21.347656 -33.160156 21.507812 -34.34375 C 21.597656 -35.050781 21.839844 -35.933594 22.242188 -36.992188 C 22.632812 -38.023438 23.238281 -38.820312 24.058594 -39.390625 C 24.953125 -40.007812 25.96875 -40.273438 27.113281 -40.191406 L 26.886719 -37.011719 L 26.886719 -40.203125 C 28.050781 -40.203125 29.050781 -39.785156 29.886719 -38.949219 C 30.453125 -38.378906 30.886719 -37.644531 31.1875 -36.742188 C 31.566406 -35.613281 31.789062 -34.273438 31.859375 -32.730469 L 28.671875 -32.585938 L 31.855469 -32.8125 C 31.90625 -32.070312 32.03125 -30.902344 32.222656 -29.308594 C 32.417969 -27.6875 32.644531 -25.996094 32.894531 -24.230469 L 33.574219 -19.46875 C 33.765625 -18.136719 33.882812 -17.355469 33.929688 -17.132812 L 33.988281 -16.820312 L 33.988281 -16.503906 C 33.988281 -15.628906 33.777344 -14.832031 33.347656 -14.125 C 32.894531 -13.378906 32.257812 -12.8125 31.433594 -12.425781 L 30.066406 -11.785156 L 26.460938 -11.785156 C 25.390625 -11.785156 24.574219 -11.925781 24.011719 -12.207031 L 25.4375 -15.058594 L 25.4375 -11.867188 C 25.671875 -11.867188 25.867188 -11.894531 26.023438 -11.949219 C 26.6875 -12.167969 27.191406 -12.617188 27.527344 -13.292969 L 24.671875 -14.71875 L 27.847656 -14.378906 L 27.378906 -10.042969 C 27.179688 -8.1875 27 -6.34375 26.828125 -4.515625 C 26.664062 -2.710938 26.554688 -1.292969 26.5 -0.257812 L 23.3125 -0.425781 L 26.503906 -0.425781 C 26.503906 -1.03125 26.296875 -1.585938 25.890625 -2.097656 C 25.308594 -2.828125 24.5625 -3.191406 23.652344 -3.191406 Z M 51.390625 -3.191406 "/></g></g></g></g><g fill="#222222" fill-opacity="1"><g transform="translate(2.304071, 68.699816)"><g><path d="M 51.390625 0 L 23.65625 0 C 23.425781 0 23.3125 -0.140625 23.3125 -0.421875 C 23.363281 -1.503906 23.472656 -2.96875 23.640625 -4.8125 C 23.816406 -6.65625 24.003906 -8.507812 24.203125 -10.375 C 24.398438 -12.25 24.554688 -13.695312 24.671875 -14.71875 C 24.722656 -14.832031 24.832031 -14.914062 25 -14.96875 C 25.175781 -15.03125 25.320312 -15.0625 25.4375 -15.0625 C 25.550781 -15 25.890625 -14.96875 26.453125 -14.96875 C 27.023438 -14.96875 27.609375 -14.96875 28.203125 -14.96875 C 28.796875 -14.96875 29.179688 -14.96875 29.359375 -14.96875 C 29.359375 -14.96875 29.597656 -15.082031 30.078125 -15.3125 C 30.554688 -15.539062 30.796875 -15.9375 30.796875 -16.5 C 30.742188 -16.789062 30.617188 -17.628906 30.421875 -19.015625 C 30.222656 -20.398438 29.992188 -21.984375 29.734375 -23.765625 C 29.484375 -25.554688 29.253906 -27.273438 29.046875 -28.921875 C 28.847656 -30.566406 28.722656 -31.785156 28.671875 -32.578125 C 28.617188 -33.828125 28.445312 -34.878906 28.15625 -35.734375 C 27.875 -36.585938 27.453125 -37.015625 26.890625 -37.015625 C 26.085938 -37.066406 25.53125 -36.679688 25.21875 -35.859375 C 24.90625 -35.035156 24.722656 -34.398438 24.671875 -33.953125 C 24.503906 -32.703125 24.21875 -30.941406 23.8125 -28.671875 C 23.414062 -26.398438 22.960938 -23.898438 22.453125 -21.171875 C 21.941406 -18.453125 21.457031 -15.734375 21 -13.015625 C 20.550781 -10.296875 20.171875 -7.816406 19.859375 -5.578125 C 19.546875 -3.335938 19.363281 -1.617188 19.3125 -0.421875 C 19.3125 -0.140625 19.226562 0 19.0625 0 L 1.875 0 C 1.644531 0 1.554688 -0.171875 1.609375 -0.515625 C 1.671875 -0.734375 1.710938 -0.96875 1.734375 -1.21875 C 1.765625 -1.476562 1.8125 -1.722656 1.875 -1.953125 C 1.988281 -2.460938 2.210938 -3.550781 2.546875 -5.21875 C 2.890625 -6.894531 3.273438 -8.78125 3.703125 -10.875 C 4.128906 -12.976562 4.539062 -15.007812 4.9375 -16.96875 C 5.332031 -18.925781 5.671875 -20.445312 5.953125 -21.53125 C 6.066406 -22.257812 6.28125 -23.503906 6.59375 -25.265625 C 6.90625 -27.023438 7.242188 -29.050781 7.609375 -31.34375 C 7.984375 -33.644531 8.367188 -36 8.765625 -38.40625 C 9.160156 -40.820312 9.515625 -43.109375 9.828125 -45.265625 C 10.140625 -47.421875 10.40625 -49.207031 10.625 -50.625 C 10.851562 -52.039062 10.96875 -52.890625 10.96875 -53.171875 C 11.03125 -53.398438 11.144531 -53.515625 11.3125 -53.515625 L 42.28125 -53.515625 C 42.394531 -53.515625 42.484375 -53.398438 42.546875 -53.171875 C 42.648438 -52.609375 42.859375 -51.429688 43.171875 -49.640625 C 43.484375 -47.859375 43.820312 -45.859375 44.1875 -43.640625 C 44.5625 -41.429688 44.914062 -39.316406 45.25 -37.296875 C 45.59375 -35.285156 45.878906 -33.710938 46.109375 -32.578125 C 46.503906 -30.316406 46.875 -28.050781 47.21875 -25.78125 C 47.5625 -23.507812 47.898438 -21.238281 48.234375 -18.96875 C 48.347656 -18.519531 48.503906 -17.65625 48.703125 -16.375 C 48.898438 -15.101562 49.15625 -13.65625 49.46875 -12.03125 C 49.78125 -10.414062 50.078125 -8.785156 50.359375 -7.140625 C 50.648438 -5.492188 50.921875 -4.078125 51.171875 -2.890625 C 51.429688 -1.703125 51.585938 -0.910156 51.640625 -0.515625 C 51.753906 -0.171875 51.671875 0 51.390625 0 Z M 51.390625 0 "/></g></g></g></g></g><g transform="matrix(1, 0, 0, 1, 138, 127)"><g clip-path="url(#f87687b276)"><g fill="#222222" fill-opacity="1"><g transform="translate(1.557404, 12.660398)"><g><path d="M 7.796875 0.199219 L 5.960938 0.199219 L 5.304688 -1.808594 L 5.496094 -1.871094 L 5.496094 -1.671875 L 2.382812 -1.671875 L 2.382812 -1.871094 L 2.574219 -1.808594 L 1.917969 0.199219 L -0.15625 0.199219 L 2.785156 -8.320312 L 5.132812 -8.320312 L 8.074219 0.199219 Z M 7.796875 -0.199219 L 7.796875 0 L 7.605469 0.0664062 L 4.800781 -8.058594 L 4.988281 -8.121094 L 4.988281 -7.921875 L 2.929688 -7.921875 L 2.929688 -8.121094 L 3.117188 -8.058594 L 0.308594 0.0664062 L 0.121094 0 L 0.121094 -0.199219 L 1.773438 -0.199219 L 1.773438 0 L 1.582031 -0.0625 L 2.238281 -2.070312 L 5.640625 -2.070312 L 6.296875 -0.0625 L 6.105469 0 L 6.105469 -0.199219 Z M 4.050781 -6.367188 L 3.007812 -3.160156 L 2.816406 -3.222656 L 2.816406 -3.421875 L 5.050781 -3.421875 L 5.050781 -3.222656 L 4.859375 -3.160156 L 3.8125 -6.367188 L 4 -6.429688 L 4 -6.230469 L 3.863281 -6.230469 L 3.863281 -6.429688 Z M 3.714844 -6.628906 L 4.144531 -6.628906 L 5.324219 -3.023438 L 2.542969 -3.023438 L 3.671875 -6.488281 Z M 3.714844 -6.628906 "/></g></g></g><g fill="#222222" fill-opacity="1"><g transform="translate(15.107937, 12.660398)"><g><path d="M 3.976562 -8.320312 C 5.351562 -8.320312 6.402344 -7.960938 7.136719 -7.242188 C 7.871094 -6.523438 8.238281 -5.460938 8.238281 -4.0625 C 8.238281 -2.664062 7.871094 -1.605469 7.136719 -0.882812 C 6.402344 -0.160156 5.351562 0.199219 3.976562 0.199219 L 0.855469 0.199219 L 0.855469 -8.320312 Z M 3.976562 -7.921875 L 1.054688 -7.921875 L 1.054688 -8.121094 L 1.253906 -8.121094 L 1.253906 0 L 1.054688 0 L 1.054688 -0.199219 L 3.976562 -0.199219 C 5.242188 -0.199219 6.203125 -0.523438 6.859375 -1.167969 C 7.511719 -1.8125 7.839844 -2.777344 7.839844 -4.0625 C 7.839844 -5.351562 7.511719 -6.316406 6.859375 -6.957031 C 6.203125 -7.601562 5.242188 -7.921875 3.976562 -7.921875 Z M 3.882812 -1.550781 C 4.664062 -1.550781 5.242188 -1.742188 5.617188 -2.128906 C 5.996094 -2.519531 6.183594 -3.164062 6.183594 -4.0625 C 6.183594 -4.960938 5.996094 -5.601562 5.617188 -5.992188 C 5.242188 -6.378906 4.664062 -6.574219 3.882812 -6.574219 L 2.660156 -6.574219 L 2.660156 -6.773438 L 2.859375 -6.773438 L 2.859375 -1.351562 L 2.660156 -1.351562 L 2.660156 -1.550781 Z M 3.882812 -1.152344 L 2.460938 -1.152344 L 2.460938 -6.972656 L 3.882812 -6.972656 C 4.777344 -6.972656 5.449219 -6.738281 5.90625 -6.269531 C 6.355469 -5.804688 6.582031 -5.066406 6.582031 -4.0625 C 6.582031 -3.054688 6.355469 -2.320312 5.90625 -1.851562 C 5.449219 -1.386719 4.777344 -1.152344 3.882812 -1.152344 Z M 3.882812 -1.152344 "/></g></g></g><g fill="#222222" fill-opacity="1"><g transform="translate(29.425035, 12.660398)"><g/></g></g><g fill="#222222" fill-opacity="1"><g transform="translate(37.742929, 12.660398)"><g><path d="M 7.796875 0.199219 L 5.960938 0.199219 L 5.304688 -1.808594 L 5.496094 -1.871094 L 5.496094 -1.671875 L 2.382812 -1.671875 L 2.382812 -1.871094 L 2.574219 -1.808594 L 1.917969 0.199219 L -0.15625 0.199219 L 2.785156 -8.320312 L 5.132812 -8.320312 L 8.074219 0.199219 Z M 7.796875 -0.199219 L 7.796875 0 L 7.605469 0.0664062 L 4.800781 -8.058594 L 4.988281 -8.121094 L 4.988281 -7.921875 L 2.929688 -7.921875 L 2.929688 -8.121094 L 3.117188 -8.058594 L 0.308594 0.0664062 L 0.121094 0 L 0.121094 -0.199219 L 1.773438 -0.199219 L 1.773438 0 L 1.582031 -0.0625 L 2.238281 -2.070312 L 5.640625 -2.070312 L 6.296875 -0.0625 L 6.105469 0 L 6.105469 -0.199219 Z M 4.050781 -6.367188 L 3.007812 -3.160156 L 2.816406 -3.222656 L 2.816406 -3.421875 L 5.050781 -3.421875 L 5.050781 -3.222656 L 4.859375 -3.160156 L 3.8125 -6.367188 L 4 -6.429688 L 4 -6.230469 L 3.863281 -6.230469 L 3.863281 -6.429688 Z M 3.714844 -6.628906 L 4.144531 -6.628906 L 5.324219 -3.023438 L 2.542969 -3.023438 L 3.671875 -6.488281 Z M 3.714844 -6.628906 "/></g></g></g><g fill="#222222" fill-opacity="1"><g transform="translate(51.293462, 12.660398)"><g><path d="M 3.601562 0.316406 C 3.015625 0.316406 2.496094 0.242188 2.039062 0.0976562 C 1.574219 -0.046875 1.191406 -0.242188 0.878906 -0.480469 C 0.566406 -0.722656 0.324219 -0.992188 0.15625 -1.285156 L 0.0859375 -1.402344 L 1.117188 -2.660156 L 1.457031 -2.660156 L 1.515625 -2.574219 C 1.742188 -2.234375 2.03125 -1.96875 2.378906 -1.765625 C 2.726562 -1.570312 3.132812 -1.472656 3.601562 -1.472656 C 3.980469 -1.472656 4.261719 -1.546875 4.445312 -1.699219 C 4.617188 -1.839844 4.699219 -2.039062 4.699219 -2.292969 C 4.699219 -2.453125 4.675781 -2.582031 4.621094 -2.683594 C 4.566406 -2.777344 4.476562 -2.863281 4.347656 -2.9375 C 4.199219 -3.019531 3.996094 -3.09375 3.738281 -3.15625 L 2.695312 -3.394531 C 1.925781 -3.570312 1.347656 -3.867188 0.960938 -4.285156 C 0.570312 -4.710938 0.371094 -5.257812 0.375 -5.929688 C 0.375 -6.425781 0.5 -6.867188 0.75 -7.25 C 1 -7.628906 1.363281 -7.925781 1.839844 -8.132812 C 2.304688 -8.335938 2.855469 -8.4375 3.496094 -8.4375 C 4.144531 -8.4375 4.703125 -8.351562 5.171875 -8.179688 C 5.648438 -8.003906 6.050781 -7.730469 6.382812 -7.367188 L 6.488281 -7.246094 L 5.539062 -5.945312 L 5.214844 -5.945312 L 5.15625 -6.007812 C 4.945312 -6.226562 4.707031 -6.390625 4.4375 -6.503906 C 4.164062 -6.613281 3.851562 -6.667969 3.496094 -6.667969 C 3.09375 -6.667969 2.796875 -6.601562 2.601562 -6.46875 C 2.511719 -6.410156 2.449219 -6.339844 2.40625 -6.261719 C 2.363281 -6.183594 2.34375 -6.09375 2.34375 -5.988281 C 2.34375 -5.792969 2.402344 -5.636719 2.523438 -5.523438 C 2.65625 -5.398438 2.902344 -5.292969 3.265625 -5.21875 L 4.328125 -4.996094 C 5.160156 -4.820312 5.769531 -4.515625 6.15625 -4.085938 C 6.542969 -3.648438 6.738281 -3.085938 6.738281 -2.394531 C 6.738281 -1.851562 6.621094 -1.375 6.382812 -0.96875 C 6.144531 -0.558594 5.785156 -0.238281 5.308594 -0.015625 C 4.839844 0.207031 4.269531 0.316406 3.601562 0.316406 Z M 3.601562 -0.0820312 C 4.210938 -0.0820312 4.722656 -0.179688 5.136719 -0.375 C 5.542969 -0.566406 5.839844 -0.828125 6.039062 -1.167969 C 6.238281 -1.515625 6.339844 -1.921875 6.339844 -2.394531 C 6.339844 -2.984375 6.179688 -3.460938 5.855469 -3.820312 C 5.53125 -4.1875 4.996094 -4.449219 4.25 -4.605469 L 3.179688 -4.828125 C 2.746094 -4.921875 2.4375 -5.054688 2.25 -5.234375 C 2.046875 -5.425781 1.945312 -5.675781 1.945312 -5.988281 C 1.945312 -6.160156 1.980469 -6.3125 2.054688 -6.449219 C 2.128906 -6.585938 2.234375 -6.703125 2.378906 -6.796875 C 2.640625 -6.976562 3.011719 -7.066406 3.496094 -7.066406 C 3.902344 -7.066406 4.265625 -7 4.585938 -6.871094 C 4.910156 -6.738281 5.195312 -6.542969 5.445312 -6.28125 L 5.300781 -6.144531 L 5.300781 -6.34375 L 5.4375 -6.34375 L 5.4375 -6.144531 L 5.277344 -6.261719 L 6.074219 -7.351562 L 6.234375 -7.234375 L 6.085938 -7.101562 C 5.800781 -7.417969 5.449219 -7.652344 5.035156 -7.804688 C 4.609375 -7.960938 4.097656 -8.039062 3.496094 -8.039062 C 2.910156 -8.039062 2.414062 -7.949219 2 -7.769531 C 1.597656 -7.589844 1.292969 -7.34375 1.082031 -7.03125 C 0.875 -6.714844 0.769531 -6.347656 0.769531 -5.929688 C 0.769531 -5.363281 0.933594 -4.902344 1.253906 -4.554688 C 1.585938 -4.199219 2.09375 -3.941406 2.785156 -3.785156 L 3.832031 -3.542969 C 4.125 -3.472656 4.363281 -3.386719 4.542969 -3.285156 C 4.738281 -3.171875 4.882812 -3.035156 4.96875 -2.871094 C 5.054688 -2.714844 5.097656 -2.519531 5.097656 -2.292969 C 5.097656 -1.914062 4.964844 -1.613281 4.699219 -1.390625 C 4.445312 -1.179688 4.078125 -1.074219 3.601562 -1.074219 C 3.0625 -1.074219 2.589844 -1.1875 2.183594 -1.421875 C 1.777344 -1.652344 1.445312 -1.960938 1.183594 -2.351562 L 1.351562 -2.460938 L 1.351562 -2.261719 L 1.210938 -2.261719 L 1.210938 -2.460938 L 1.367188 -2.335938 L 0.480469 -1.257812 L 0.328125 -1.382812 L 0.5 -1.484375 C 0.644531 -1.234375 0.851562 -1.007812 1.121094 -0.796875 C 1.394531 -0.585938 1.742188 -0.414062 2.15625 -0.28125 C 2.578125 -0.148438 3.058594 -0.0820312 3.601562 -0.0820312 Z M 3.601562 -0.0820312 "/></g></g></g><g fill="#222222" fill-opacity="1"><g transform="translate(63.90523, 12.660398)"><g><path d="M 6.710938 -8.121094 L 6.710938 -6.574219 L 4.167969 -6.574219 L 4.167969 -6.773438 L 4.367188 -6.773438 L 4.367188 0.199219 L 2.367188 0.199219 L 2.367188 -6.773438 L 2.566406 -6.773438 L 2.566406 -6.574219 L 0.0234375 -6.574219 L 0.0234375 -8.320312 L 6.710938 -8.320312 Z M 6.3125 -8.121094 L 6.511719 -8.121094 L 6.511719 -7.921875 L 0.222656 -7.921875 L 0.222656 -8.121094 L 0.421875 -8.121094 L 0.421875 -6.773438 L 0.222656 -6.773438 L 0.222656 -6.972656 L 2.765625 -6.972656 L 2.765625 0 L 2.566406 0 L 2.566406 -0.199219 L 4.167969 -0.199219 L 4.167969 0 L 3.96875 0 L 3.96875 -6.972656 L 6.511719 -6.972656 L 6.511719 -6.773438 L 6.3125 -6.773438 Z M 6.3125 -8.121094 "/></g></g></g><g fill="#222222" fill-opacity="1"><g transform="translate(76.272587, 12.660398)"><g><path d="M 0.855469 0 L 0.855469 -8.320312 L 4.316406 -8.320312 C 5.207031 -8.320312 5.886719 -8.109375 6.355469 -7.691406 C 6.824219 -7.261719 7.0625 -6.679688 7.0625 -5.9375 C 7.0625 -5.398438 6.921875 -4.957031 6.640625 -4.605469 C 6.367188 -4.257812 5.964844 -3.996094 5.429688 -3.816406 L 5.367188 -4.003906 L 5.566406 -4.003906 L 5.566406 -3.890625 L 5.367188 -3.890625 L 5.445312 -4.070312 C 5.734375 -3.945312 5.96875 -3.757812 6.148438 -3.511719 C 6.316406 -3.277344 6.476562 -2.933594 6.625 -2.484375 L 7.523438 0.199219 L 5.449219 0.199219 L 4.609375 -2.367188 C 4.535156 -2.589844 4.453125 -2.757812 4.367188 -2.878906 C 4.285156 -2.984375 4.1875 -3.058594 4.0625 -3.105469 C 3.929688 -3.160156 3.75 -3.183594 3.523438 -3.183594 L 2.660156 -3.183594 L 2.660156 -3.382812 L 2.859375 -3.382812 L 2.859375 0.199219 L 0.855469 0.199219 Z M 1.253906 0 L 1.054688 0 L 1.054688 -0.199219 L 2.660156 -0.199219 L 2.660156 0 L 2.460938 0 L 2.460938 -3.582031 L 3.523438 -3.582031 C 3.800781 -3.582031 4.027344 -3.546875 4.207031 -3.476562 C 4.402344 -3.402344 4.558594 -3.28125 4.683594 -3.117188 C 4.800781 -2.964844 4.902344 -2.753906 4.988281 -2.488281 L 5.785156 -0.0625 L 5.59375 0 L 5.59375 -0.199219 L 7.246094 -0.199219 L 7.246094 0 L 7.054688 0.0625 L 6.246094 -2.359375 C 6.109375 -2.769531 5.96875 -3.078125 5.824219 -3.277344 C 5.6875 -3.46875 5.507812 -3.609375 5.289062 -3.707031 L 5.167969 -3.757812 L 5.167969 -4.148438 L 5.304688 -4.195312 C 5.761719 -4.347656 6.105469 -4.566406 6.332031 -4.851562 C 6.550781 -5.128906 6.664062 -5.492188 6.664062 -5.9375 C 6.664062 -6.5625 6.46875 -7.046875 6.085938 -7.394531 C 5.695312 -7.746094 5.105469 -7.921875 4.316406 -7.921875 L 1.054688 -7.921875 L 1.054688 -8.121094 L 1.253906 -8.121094 Z M 4.121094 -4.855469 C 4.460938 -4.855469 4.707031 -4.929688 4.863281 -5.074219 C 5.015625 -5.214844 5.089844 -5.441406 5.089844 -5.746094 C 5.089844 -6.054688 5.011719 -6.285156 4.859375 -6.429688 C 4.703125 -6.578125 4.457031 -6.652344 4.121094 -6.652344 L 2.660156 -6.652344 L 2.660156 -6.851562 L 2.859375 -6.851562 L 2.859375 -4.65625 L 2.660156 -4.65625 L 2.660156 -4.855469 Z M 4.121094 -4.457031 L 2.460938 -4.457031 L 2.460938 -7.050781 L 4.121094 -7.050781 C 4.5625 -7.050781 4.902344 -6.9375 5.132812 -6.71875 C 5.371094 -6.496094 5.488281 -6.171875 5.488281 -5.746094 C 5.488281 -5.324219 5.371094 -5.003906 5.132812 -4.78125 C 4.902344 -4.566406 4.5625 -4.457031 4.121094 -4.457031 Z M 4.121094 -4.457031 "/></g></g></g><g fill="#222222" fill-opacity="1"><g transform="translate(89.50094, 12.660398)"><g><path d="M 7.796875 0.199219 L 5.960938 0.199219 L 5.304688 -1.808594 L 5.496094 -1.871094 L 5.496094 -1.671875 L 2.382812 -1.671875 L 2.382812 -1.871094 L 2.574219 -1.808594 L 1.917969 0.199219 L -0.15625 0.199219 L 2.785156 -8.320312 L 5.132812 -8.320312 L 8.074219 0.199219 Z M 7.796875 -0.199219 L 7.796875 0 L 7.605469 0.0664062 L 4.800781 -8.058594 L 4.988281 -8.121094 L 4.988281 -7.921875 L 2.929688 -7.921875 L 2.929688 -8.121094 L 3.117188 -8.058594 L 0.308594 0.0664062 L 0.121094 0 L 0.121094 -0.199219 L 1.773438 -0.199219 L 1.773438 0 L 1.582031 -0.0625 L 2.238281 -2.070312 L 5.640625 -2.070312 L 6.296875 -0.0625 L 6.105469 0 L 6.105469 -0.199219 Z M 4.050781 -6.367188 L 3.007812 -3.160156 L 2.816406 -3.222656 L 2.816406 -3.421875 L 5.050781 -3.421875 L 5.050781 -3.222656 L 4.859375 -3.160156 L 3.8125 -6.367188 L 4 -6.429688 L 4 -6.230469 L 3.863281 -6.230469 L 3.863281 -6.429688 Z M 3.714844 -6.628906 L 4.144531 -6.628906 L 5.324219 -3.023438 L 2.542969 -3.023438 L 3.671875 -6.488281 Z M 3.714844 -6.628906 "/></g></g></g><g fill="#222222" fill-opacity="1"><g transform="translate(1.557404, 12.660398)"><g><path d="M 7.796875 0 L 6.109375 0 L 5.5 -1.875 L 2.375 -1.875 L 1.765625 0 L 0.125 0 L 2.921875 -8.125 L 4.984375 -8.125 Z M 3.859375 -6.421875 L 2.8125 -3.21875 L 5.046875 -3.21875 L 4 -6.421875 Z M 3.859375 -6.421875 "/></g></g></g><g fill="#222222" fill-opacity="1"><g transform="translate(15.107937, 12.660398)"><g><path d="M 3.984375 -8.125 C 5.296875 -8.125 6.296875 -7.78125 6.984375 -7.09375 C 7.679688 -6.414062 8.03125 -5.40625 8.03125 -4.0625 C 8.03125 -2.71875 7.679688 -1.703125 6.984375 -1.015625 C 6.296875 -0.335938 5.296875 0 3.984375 0 L 1.0625 0 L 1.0625 -8.125 Z M 3.875 -1.34375 C 4.71875 -1.34375 5.34375 -1.554688 5.75 -1.984375 C 6.164062 -2.410156 6.375 -3.101562 6.375 -4.0625 C 6.375 -5.007812 6.164062 -5.695312 5.75 -6.125 C 5.34375 -6.550781 4.71875 -6.765625 3.875 -6.765625 L 2.65625 -6.765625 L 2.65625 -1.34375 Z M 3.875 -1.34375 "/></g></g></g><g fill="#222222" fill-opacity="1"><g transform="translate(29.425035, 12.660398)"><g/></g></g><g fill="#222222" fill-opacity="1"><g transform="translate(37.742929, 12.660398)"><g><path d="M 7.796875 0 L 6.109375 0 L 5.5 -1.875 L 2.375 -1.875 L 1.765625 0 L 0.125 0 L 2.921875 -8.125 L 4.984375 -8.125 Z M 3.859375 -6.421875 L 2.8125 -3.21875 L 5.046875 -3.21875 L 4 -6.421875 Z M 3.859375 -6.421875 "/></g></g></g><g fill="#222222" fill-opacity="1"><g transform="translate(51.293462, 12.660398)"><g><path d="M 3.59375 0.109375 C 3.03125 0.109375 2.53125 0.0390625 2.09375 -0.09375 C 1.65625 -0.226562 1.289062 -0.410156 1 -0.640625 C 0.707031 -0.867188 0.484375 -1.117188 0.328125 -1.390625 L 1.203125 -2.453125 L 1.34375 -2.453125 C 1.59375 -2.097656 1.90625 -1.8125 2.28125 -1.59375 C 2.65625 -1.375 3.09375 -1.265625 3.59375 -1.265625 C 4.03125 -1.265625 4.359375 -1.351562 4.578125 -1.53125 C 4.796875 -1.71875 4.90625 -1.972656 4.90625 -2.296875 C 4.90625 -2.484375 4.867188 -2.640625 4.796875 -2.765625 C 4.722656 -2.898438 4.601562 -3.015625 4.4375 -3.109375 C 4.28125 -3.203125 4.0625 -3.28125 3.78125 -3.34375 L 2.734375 -3.59375 C 2.003906 -3.757812 1.460938 -4.035156 1.109375 -4.421875 C 0.753906 -4.804688 0.578125 -5.304688 0.578125 -5.921875 C 0.578125 -6.378906 0.691406 -6.78125 0.921875 -7.125 C 1.148438 -7.476562 1.484375 -7.75 1.921875 -7.9375 C 2.359375 -8.132812 2.882812 -8.234375 3.5 -8.234375 C 4.125 -8.234375 4.65625 -8.148438 5.09375 -7.984375 C 5.539062 -7.828125 5.921875 -7.578125 6.234375 -7.234375 L 5.4375 -6.140625 L 5.296875 -6.140625 C 5.066406 -6.378906 4.800781 -6.554688 4.5 -6.671875 C 4.207031 -6.796875 3.875 -6.859375 3.5 -6.859375 C 3.050781 -6.859375 2.710938 -6.78125 2.484375 -6.625 C 2.253906 -6.476562 2.140625 -6.265625 2.140625 -5.984375 C 2.140625 -5.734375 2.21875 -5.53125 2.375 -5.375 C 2.539062 -5.226562 2.820312 -5.109375 3.21875 -5.015625 L 4.28125 -4.796875 C 5.070312 -4.628906 5.644531 -4.347656 6 -3.953125 C 6.351562 -3.554688 6.53125 -3.035156 6.53125 -2.390625 C 6.53125 -1.890625 6.421875 -1.445312 6.203125 -1.0625 C 5.984375 -0.6875 5.65625 -0.394531 5.21875 -0.1875 C 4.78125 0.0078125 4.238281 0.109375 3.59375 0.109375 Z M 3.59375 0.109375 "/></g></g></g><g fill="#222222" fill-opacity="1"><g transform="translate(63.90523, 12.660398)"><g><path d="M 6.515625 -8.125 L 6.515625 -6.765625 L 4.171875 -6.765625 L 4.171875 0 L 2.5625 0 L 2.5625 -6.765625 L 0.21875 -6.765625 L 0.21875 -8.125 Z M 6.515625 -8.125 "/></g></g></g><g fill="#222222" fill-opacity="1"><g transform="translate(76.272587, 12.660398)"><g><path d="M 1.0625 0 L 1.0625 -8.125 L 4.3125 -8.125 C 5.15625 -8.125 5.789062 -7.925781 6.21875 -7.53125 C 6.644531 -7.144531 6.859375 -6.613281 6.859375 -5.9375 C 6.859375 -5.445312 6.734375 -5.039062 6.484375 -4.71875 C 6.234375 -4.40625 5.859375 -4.164062 5.359375 -4 L 5.359375 -3.890625 C 5.617188 -3.773438 5.828125 -3.609375 5.984375 -3.390625 C 6.140625 -3.171875 6.289062 -2.847656 6.4375 -2.421875 L 7.25 0 L 5.59375 0 L 4.796875 -2.421875 C 4.710938 -2.671875 4.617188 -2.863281 4.515625 -3 C 4.421875 -3.132812 4.296875 -3.226562 4.140625 -3.28125 C 3.984375 -3.34375 3.773438 -3.375 3.515625 -3.375 L 2.65625 -3.375 L 2.65625 0 Z M 4.125 -4.65625 C 4.894531 -4.65625 5.28125 -5.019531 5.28125 -5.75 C 5.28125 -6.476562 4.894531 -6.84375 4.125 -6.84375 L 2.65625 -6.84375 L 2.65625 -4.65625 Z M 4.125 -4.65625 "/></g></g></g><g fill="#222222" fill-opacity="1"><g transform="translate(89.50094, 12.660398)"><g><path d="M 7.796875 0 L 6.109375 0 L 5.5 -1.875 L 2.375 -1.875 L 1.765625 0 L 0.125 0 L 2.921875 -8.125 L 4.984375 -8.125 Z M 3.859375 -6.421875 L 2.8125 -3.21875 L 5.046875 -3.21875 L 4 -6.421875 Z M 3.859375 -6.421875 "/></g></g></g></g></g></svg>